<svg id="svg" version="1.1" xmlns="http://www.w3.org/2000/svg" xmlns:xlink="http://www.w3.org/1999/xlink" width="400" height="59.19661733615222" viewBox="0, 0, 400,59.19661733615222"><g id="svgg"><path id="path0" d="M4.033 14.200 C 3.918 14.316,3.833 14.870,3.833 15.514 C 3.833 16.457,3.786 16.640,3.525 16.708 C 3.060 16.830,3.000 17.462,3.000 22.251 C 3.000 26.603,2.998 26.627,2.625 26.875 C 2.252 27.122,2.250 27.151,2.201 32.067 C 2.174 34.786,2.091 36.973,2.015 36.926 C 1.881 36.843,1.209 37.470,1.292 37.601 C 1.506 37.939,1.301 47.167,1.079 47.167 C 0.578 47.167,0.500 48.033,0.500 53.594 L 0.500 59.167 24.167 59.167 L 47.833 59.167 47.820 55.708 C 47.797 49.781,47.638 47.388,47.248 47.102 C 46.934 46.873,46.914 46.621,46.859 42.222 C 46.802 37.649,46.725 37.000,46.244 37.000 C 46.035 37.000,46.000 36.299,46.000 32.159 L 46.000 27.317 45.583 26.931 L 45.167 26.545 45.164 21.981 C 45.162 17.186,45.111 16.588,44.719 16.739 C 44.588 16.789,44.528 16.756,44.585 16.665 C 44.641 16.574,44.607 16.500,44.510 16.500 C 44.402 16.500,44.333 16.044,44.333 15.337 C 44.333 13.891,44.601 13.975,40.167 14.036 C 36.807 14.083,36.749 14.089,36.699 14.444 C 36.664 14.689,36.757 14.840,36.990 14.914 C 37.179 14.973,37.333 15.087,37.333 15.165 C 37.333 15.244,37.537 15.549,37.785 15.845 C 38.399 16.575,38.465 18.570,37.896 19.195 C 37.701 19.408,37.458 19.746,37.355 19.945 C 37.253 20.144,36.887 20.398,36.543 20.510 C 36.198 20.622,35.769 20.816,35.588 20.940 C 35.166 21.231,34.096 21.233,33.856 20.944 C 33.754 20.821,33.381 20.634,33.026 20.528 C 31.003 19.921,30.555 15.654,32.439 14.931 C 32.564 14.883,32.667 14.654,32.667 14.422 L 32.667 14.000 24.083 14.000 L 15.500 14.000 15.500 14.397 C 15.500 14.638,15.665 14.903,15.917 15.068 C 16.146 15.218,16.333 15.428,16.333 15.535 C 16.333 15.641,16.495 15.901,16.694 16.112 C 18.404 17.933,14.635 22.356,12.579 20.940 C 12.398 20.816,11.969 20.623,11.625 20.511 C 11.281 20.399,11.000 20.249,11.000 20.177 C 11.000 20.105,10.775 19.763,10.500 19.417 C 9.864 18.617,9.755 16.579,10.317 16.016 C 10.491 15.842,10.683 15.546,10.742 15.358 C 10.802 15.171,10.997 14.971,11.175 14.914 C 11.380 14.849,11.500 14.661,11.500 14.405 L 11.500 14.000 7.867 14.000 C 5.263 14.000,4.177 14.057,4.033 14.200 M162.111 17.444 C 162.050 17.506,162.000 21.845,162.000 27.088 L 162.000 36.620 162.875 36.725 C 164.016 36.862,173.503 36.837,174.583 36.694 L 175.417 36.583 175.465 35.123 C 175.526 33.256,175.726 33.333,170.822 33.333 L 167.000 33.333 167.000 30.833 L 167.000 28.333 170.292 28.317 C 174.643 28.295,174.405 28.383,174.466 26.769 C 174.536 24.904,174.748 25.000,170.563 25.000 L 167.000 25.000 167.000 22.833 L 167.000 20.667 171.149 20.667 C 174.778 20.667,175.310 20.634,175.399 20.403 C 175.583 19.923,175.508 17.741,175.300 17.533 C 175.083 17.316,162.326 17.230,162.111 17.444 M181.875 17.504 C 181.669 17.587,181.500 17.771,181.500 17.911 C 181.500 18.056,181.355 18.167,181.163 18.167 C 180.965 18.167,180.748 18.339,180.636 18.583 C 180.532 18.813,180.310 19.000,180.143 19.000 C 179.966 19.000,179.800 19.159,179.744 19.381 C 179.691 19.591,179.484 19.834,179.283 19.923 C 179.081 20.011,178.893 20.252,178.863 20.458 C 178.831 20.689,178.694 20.833,178.509 20.833 C 178.170 20.833,178.000 21.424,178.000 22.604 C 178.000 23.133,177.933 23.333,177.756 23.333 C 176.991 23.333,176.870 30.722,177.625 31.333 C 177.871 31.532,178.000 31.818,178.000 32.163 C 178.000 32.796,178.262 33.333,178.571 33.333 C 178.696 33.333,178.844 33.590,178.905 33.912 C 179.023 34.540,179.529 35.000,180.102 35.000 C 180.349 35.000,180.497 35.132,180.568 35.417 C 180.644 35.717,180.785 35.833,181.075 35.833 C 181.365 35.833,181.492 35.938,181.530 36.208 C 181.600 36.698,184.428 36.938,187.629 36.725 C 189.652 36.590,189.752 36.566,189.803 36.208 C 189.848 35.892,189.959 35.833,190.515 35.833 C 191.056 35.833,191.208 35.759,191.364 35.417 C 191.468 35.188,191.651 35.000,191.771 35.000 C 192.068 35.000,192.333 34.460,192.333 33.856 C 192.333 33.465,192.415 33.345,192.708 33.303 C 193.054 33.254,193.087 33.151,193.133 32.010 C 193.173 31.004,193.244 30.727,193.508 30.542 C 194.596 29.781,193.586 29.167,191.246 29.167 C 189.168 29.167,189.000 29.244,189.000 30.200 C 189.000 30.548,188.930 30.833,188.845 30.833 C 188.509 30.833,188.167 31.386,188.167 31.929 C 188.167 32.423,188.112 32.500,187.761 32.500 C 187.142 32.500,186.500 32.795,186.500 33.079 C 186.500 33.276,186.294 33.333,185.583 33.333 C 184.795 33.333,184.667 33.289,184.667 33.018 C 184.667 32.822,184.511 32.664,184.256 32.600 C 183.727 32.467,183.000 31.740,183.000 31.344 C 183.000 31.155,182.840 30.996,182.583 30.932 L 182.167 30.827 182.167 27.008 L 182.167 23.190 182.542 23.137 C 182.776 23.103,182.936 22.949,182.968 22.725 C 182.996 22.528,183.170 22.328,183.355 22.279 C 183.540 22.231,183.732 22.036,183.782 21.846 C 183.840 21.622,184.008 21.500,184.258 21.500 C 184.531 21.500,184.659 21.390,184.697 21.125 C 184.779 20.549,186.339 20.474,186.583 21.035 C 186.713 21.332,186.907 21.428,187.458 21.468 C 188.141 21.517,188.167 21.539,188.167 22.079 C 188.167 22.850,188.315 23.167,188.675 23.167 C 188.923 23.167,188.992 23.319,189.033 23.958 L 189.083 24.750 191.126 24.797 C 192.348 24.825,193.303 24.772,193.501 24.666 C 193.950 24.426,193.949 23.666,193.500 23.548 C 193.203 23.471,193.167 23.321,193.167 22.159 C 193.167 20.935,193.144 20.853,192.792 20.803 C 192.492 20.761,192.400 20.617,192.333 20.083 C 192.275 19.618,192.145 19.371,191.903 19.264 C 191.712 19.180,191.487 18.955,191.403 18.764 C 191.305 18.542,191.005 18.362,190.570 18.266 C 190.134 18.169,189.835 17.989,189.737 17.766 C 189.568 17.382,182.734 17.155,181.875 17.504 M200.625 17.595 C 200.373 17.732,200.167 17.911,200.167 17.994 C 200.167 18.076,199.998 18.167,199.792 18.197 C 199.585 18.226,199.344 18.416,199.255 18.618 C 199.166 18.821,198.941 19.008,198.755 19.035 C 198.556 19.063,198.396 19.231,198.365 19.443 C 198.334 19.661,198.155 19.842,197.907 19.904 C 197.612 19.978,197.500 20.120,197.500 20.420 C 197.500 20.672,197.405 20.833,197.256 20.833 C 196.877 20.833,196.667 21.391,196.667 22.394 C 196.667 23.217,196.629 23.316,196.292 23.363 L 195.917 23.417 195.917 27.000 C 195.917 30.556,195.920 30.585,196.292 30.748 C 196.617 30.891,196.667 31.037,196.667 31.861 C 196.667 32.761,196.926 33.333,197.334 33.333 C 197.412 33.333,197.501 33.502,197.530 33.708 C 197.564 33.949,197.717 34.102,197.958 34.137 C 198.230 34.175,198.333 34.302,198.333 34.595 C 198.333 34.913,198.421 35.000,198.738 35.000 C 199.032 35.000,199.158 35.104,199.197 35.375 C 199.242 35.694,199.366 35.758,200.031 35.800 C 200.690 35.843,200.821 35.908,200.865 36.217 C 200.979 37.019,208.333 37.035,208.333 36.233 C 208.333 35.889,208.413 35.833,208.903 35.833 C 209.679 35.833,210.000 35.687,210.000 35.334 C 210.000 35.157,210.166 34.995,210.407 34.934 C 210.737 34.851,210.834 34.693,210.924 34.092 C 211.012 33.505,211.109 33.341,211.393 33.301 C 211.692 33.258,211.758 33.121,211.801 32.458 C 211.843 31.805,211.908 31.667,212.173 31.667 C 212.650 31.667,212.682 31.321,212.630 26.750 L 212.583 22.583 212.208 22.530 C 211.884 22.484,211.833 22.377,211.833 21.735 C 211.833 21.114,211.768 20.963,211.435 20.811 C 211.149 20.681,211.007 20.445,210.932 19.976 C 210.854 19.485,210.725 19.284,210.414 19.166 C 210.186 19.079,210.000 18.892,210.000 18.750 C 210.000 18.462,209.361 18.167,208.739 18.167 C 208.452 18.167,208.333 18.074,208.333 17.851 C 208.333 17.369,208.059 17.333,204.445 17.340 C 201.791 17.345,200.987 17.399,200.625 17.595 M216.167 26.986 L 216.167 36.638 217.400 36.754 C 218.518 36.859,219.949 36.775,220.708 36.560 C 221.187 36.425,221.149 29.958,220.667 29.545 C 220.133 29.087,220.169 27.117,220.708 27.316 C 221.019 27.430,221.102 27.621,221.190 28.427 C 221.267 29.130,221.394 29.479,221.648 29.685 C 221.885 29.877,222.000 30.161,222.000 30.555 C 222.000 31.355,222.145 31.667,222.518 31.667 C 222.790 31.667,222.833 31.795,222.833 32.594 C 222.833 33.589,223.042 34.167,223.402 34.167 C 223.553 34.167,223.651 34.471,223.704 35.111 C 223.825 36.574,224.786 37.023,227.211 36.747 C 228.578 36.592,228.667 36.500,228.667 35.241 C 228.667 34.278,228.698 34.185,229.042 34.137 C 229.357 34.092,229.425 33.965,229.470 33.342 C 229.506 32.830,229.641 32.491,229.905 32.246 C 230.175 31.996,230.322 31.616,230.405 30.954 C 230.491 30.261,230.601 29.990,230.823 29.920 C 231.134 29.821,231.328 29.097,231.331 28.026 C 231.333 27.615,231.418 27.447,231.658 27.384 C 231.836 27.337,232.015 27.176,232.055 27.025 C 232.095 26.874,232.137 28.972,232.147 31.688 L 232.167 36.625 232.688 36.729 C 233.351 36.862,234.898 36.860,235.710 36.726 L 236.336 36.623 236.293 27.020 L 236.250 17.417 233.750 17.369 C 230.512 17.307,230.500 17.310,230.500 18.246 C 230.500 18.812,230.403 19.082,230.083 19.402 C 229.740 19.745,229.667 19.980,229.667 20.731 C 229.667 21.550,229.628 21.649,229.292 21.697 C 228.948 21.746,228.913 21.850,228.868 22.948 C 228.824 24.038,228.786 24.150,228.451 24.198 C 228.145 24.241,228.075 24.373,228.030 24.991 C 227.994 25.509,227.860 25.842,227.587 26.095 C 227.309 26.353,227.162 26.725,227.079 27.390 C 226.991 28.095,226.886 28.347,226.648 28.423 C 226.451 28.485,226.326 28.689,226.314 28.970 C 226.294 29.411,226.293 29.410,226.188 28.917 C 226.114 28.570,225.968 28.401,225.715 28.364 C 225.385 28.317,225.343 28.201,225.299 27.198 C 225.256 26.226,225.202 26.062,224.875 25.919 C 224.571 25.786,224.500 25.620,224.500 25.052 C 224.500 24.236,224.211 23.500,223.890 23.500 C 223.741 23.500,223.667 23.282,223.667 22.847 C 223.667 21.979,223.530 21.667,223.149 21.667 C 222.882 21.667,222.833 21.540,222.833 20.844 C 222.833 19.849,222.598 19.167,222.254 19.167 C 222.066 19.167,222.000 18.981,222.000 18.450 C 222.000 17.356,221.938 17.333,218.883 17.333 L 216.167 17.333 216.167 26.986 M240.040 17.469 C 239.875 17.576,239.840 19.614,239.874 27.094 L 239.917 36.583 241.125 36.724 C 241.790 36.802,242.877 36.802,243.542 36.724 L 244.750 36.583 244.838 32.333 C 244.886 29.996,244.942 28.212,244.963 28.369 C 244.983 28.526,245.150 28.735,245.333 28.833 C 245.540 28.944,245.668 29.184,245.669 29.464 C 245.673 30.193,245.848 30.649,246.164 30.749 C 246.387 30.820,246.479 31.074,246.537 31.782 C 246.595 32.482,246.707 32.796,246.974 33.013 C 247.188 33.186,247.334 33.495,247.336 33.777 C 247.339 34.576,247.519 35.000,247.853 35.000 C 248.104 35.000,248.167 35.125,248.169 35.625 C 248.173 36.495,248.288 36.601,249.357 36.724 C 250.897 36.901,252.333 36.690,252.333 36.287 C 252.333 36.104,252.509 35.792,252.724 35.593 C 252.998 35.339,253.151 34.958,253.233 34.323 C 253.310 33.725,253.460 33.332,253.674 33.167 C 253.905 32.988,254.028 32.620,254.106 31.875 C 254.178 31.177,254.287 30.833,254.435 30.833 C 254.751 30.833,255.000 30.284,255.000 29.589 C 255.000 29.217,255.092 28.954,255.244 28.896 C 255.378 28.845,255.546 28.641,255.619 28.443 C 255.692 28.242,255.787 29.962,255.833 32.333 L 255.917 36.583 257.125 36.724 C 257.790 36.802,258.877 36.802,259.542 36.724 L 260.750 36.583 260.750 27.000 L 260.750 17.417 257.917 17.417 C 255.160 17.417,255.082 17.426,255.033 17.769 C 255.005 17.963,254.803 18.203,254.583 18.303 C 254.225 18.466,254.177 18.608,254.133 19.618 C 254.088 20.647,254.049 20.755,253.708 20.803 C 253.379 20.850,253.333 20.954,253.333 21.658 C 253.333 22.296,253.259 22.508,252.971 22.700 C 252.683 22.891,252.594 23.147,252.535 23.957 C 252.470 24.860,252.418 24.985,252.064 25.073 C 251.693 25.166,251.667 25.250,251.667 26.325 C 251.667 27.393,251.639 27.481,251.292 27.530 C 250.974 27.575,250.904 27.710,250.833 28.417 C 250.781 28.941,250.673 29.244,250.542 29.233 C 250.427 29.224,250.221 29.205,250.083 29.192 C 249.897 29.173,249.833 28.951,249.833 28.326 C 249.833 27.656,249.750 27.402,249.426 27.077 C 249.131 26.782,249.004 26.451,248.968 25.877 C 248.924 25.199,248.862 25.076,248.542 25.030 C 248.205 24.982,248.167 24.884,248.167 24.061 C 248.167 23.076,247.957 22.500,247.598 22.500 C 247.442 22.500,247.351 22.185,247.299 21.470 C 247.239 20.647,247.152 20.392,246.862 20.200 C 246.582 20.014,246.500 19.794,246.500 19.226 C 246.500 18.610,246.435 18.463,246.092 18.307 C 245.867 18.205,245.661 17.963,245.634 17.769 C 245.580 17.396,240.570 17.127,240.040 17.469 M264.333 26.977 L 264.333 36.620 265.208 36.725 C 266.350 36.862,275.837 36.837,276.917 36.694 L 277.750 36.583 277.798 35.123 C 277.860 33.256,278.059 33.333,273.156 33.333 L 269.333 33.333 269.333 30.833 L 269.333 28.333 272.625 28.317 C 276.976 28.295,276.738 28.383,276.799 26.769 C 276.869 24.904,277.081 25.000,272.896 25.000 L 269.333 25.000 269.333 22.833 L 269.333 20.667 273.482 20.667 C 278.234 20.667,277.833 20.826,277.833 18.936 C 277.833 17.208,278.376 17.333,270.883 17.333 L 264.333 17.333 264.333 26.977 M280.444 17.444 C 280.383 17.506,280.333 21.847,280.333 27.092 L 280.333 36.628 281.594 36.746 C 282.970 36.875,284.795 36.728,285.125 36.461 C 285.280 36.336,285.333 35.379,285.333 32.730 L 285.333 29.167 286.238 29.167 C 287.050 29.167,287.149 29.205,287.197 29.542 C 287.231 29.780,287.384 29.936,287.616 29.969 C 287.925 30.013,287.990 30.143,288.033 30.802 C 288.076 31.467,288.139 31.591,288.458 31.637 C 288.790 31.684,288.833 31.786,288.833 32.519 C 288.833 33.182,288.917 33.432,289.250 33.765 C 289.479 33.994,289.667 34.325,289.667 34.500 C 289.667 34.972,290.023 35.667,290.266 35.667 C 290.382 35.667,290.502 35.873,290.531 36.125 C 290.595 36.686,292.171 36.950,294.276 36.753 L 295.515 36.637 295.466 35.527 C 295.421 34.520,295.382 34.412,295.042 34.363 C 294.748 34.322,294.667 34.202,294.667 33.811 C 294.667 33.188,294.398 32.667,294.077 32.667 C 293.916 32.667,293.833 32.493,293.833 32.156 C 293.833 31.522,293.567 31.000,293.244 31.000 C 293.083 31.000,293.000 30.827,293.000 30.489 C 293.000 29.855,292.734 29.333,292.411 29.333 C 291.969 29.333,292.108 28.413,292.583 28.197 C 292.813 28.093,293.000 27.894,293.000 27.757 C 293.000 27.619,293.188 27.459,293.417 27.402 C 293.716 27.327,293.833 27.185,293.833 26.899 C 293.833 26.660,293.931 26.500,294.077 26.500 C 294.559 26.500,294.667 25.851,294.667 22.946 L 294.667 20.036 294.262 19.934 C 294.009 19.871,293.836 19.692,293.803 19.458 C 293.770 19.221,293.616 19.064,293.385 19.031 C 293.158 18.999,293.001 18.842,292.969 18.615 C 292.936 18.384,292.779 18.230,292.542 18.197 C 292.335 18.167,292.167 18.079,292.167 18.000 C 292.167 17.374,291.797 17.333,286.099 17.333 C 283.050 17.333,280.506 17.383,280.444 17.444 M302.065 17.495 C 301.871 17.574,301.670 17.752,301.617 17.890 C 301.564 18.028,301.347 18.165,301.135 18.195 C 300.888 18.230,300.731 18.381,300.698 18.615 C 300.666 18.842,300.509 18.999,300.281 19.031 C 300.056 19.063,299.897 19.221,299.865 19.443 C 299.834 19.661,299.655 19.842,299.407 19.904 C 299.116 19.977,299.000 20.121,299.000 20.408 C 299.000 20.698,298.895 20.825,298.625 20.863 C 298.281 20.912,298.246 21.017,298.201 22.114 C 298.157 23.205,298.120 23.317,297.785 23.364 C 297.101 23.462,297.145 31.198,297.831 31.416 C 298.082 31.495,298.161 31.702,298.200 32.384 C 298.242 33.113,298.305 33.258,298.595 33.299 C 298.849 33.336,298.980 33.531,299.095 34.049 C 299.239 34.700,299.301 34.761,299.958 34.907 C 300.542 35.036,300.667 35.132,300.667 35.449 C 300.667 35.737,300.761 35.833,301.044 35.833 C 301.275 35.833,301.485 35.978,301.585 36.208 C 301.939 37.015,309.687 37.023,309.802 36.217 C 309.845 35.917,309.979 35.842,310.552 35.801 C 311.083 35.762,311.289 35.662,311.411 35.384 C 311.499 35.183,311.738 34.976,311.942 34.925 C 312.232 34.852,312.338 34.669,312.425 34.083 C 312.510 33.518,312.611 33.333,312.834 33.333 C 313.229 33.333,313.333 33.008,313.333 31.776 C 313.333 30.927,313.392 30.710,313.667 30.539 C 314.855 29.797,313.605 29.140,311.123 29.203 L 309.250 29.250 309.199 30.041 C 309.156 30.721,309.091 30.846,308.741 30.934 C 308.388 31.022,308.333 31.132,308.333 31.747 L 308.333 32.457 307.500 32.568 C 306.820 32.658,306.667 32.738,306.667 33.006 C 306.667 33.292,306.550 33.333,305.750 33.333 C 304.944 33.333,304.833 33.293,304.833 33.000 C 304.833 32.781,304.722 32.667,304.510 32.667 C 304.112 32.667,303.244 31.880,303.094 31.384 C 303.033 31.182,302.837 30.971,302.658 30.914 C 302.147 30.752,302.152 23.167,302.663 23.167 C 302.875 23.167,303.031 23.020,303.097 22.756 C 303.153 22.530,303.334 22.303,303.499 22.250 C 303.663 22.198,303.834 22.014,303.879 21.842 C 303.924 21.669,304.139 21.503,304.356 21.472 C 304.616 21.436,304.768 21.289,304.803 21.042 C 304.851 20.706,304.950 20.667,305.750 20.667 C 306.550 20.667,306.649 20.706,306.697 21.042 C 306.742 21.361,306.866 21.424,307.533 21.467 L 308.316 21.518 308.366 22.300 C 308.409 22.967,308.472 23.091,308.792 23.137 C 309.123 23.184,309.167 23.286,309.167 24.012 L 309.167 24.833 311.213 24.833 C 313.714 24.833,314.768 24.316,313.667 23.628 C 313.392 23.456,313.333 23.239,313.333 22.390 C 313.333 21.159,313.229 20.833,312.834 20.833 C 312.610 20.833,312.510 20.648,312.424 20.075 C 312.335 19.480,312.223 19.283,311.905 19.162 C 311.682 19.078,311.500 18.892,311.500 18.750 C 311.500 18.465,310.862 18.167,310.251 18.167 C 309.969 18.167,309.841 18.060,309.803 17.792 C 309.746 17.390,302.958 17.130,302.065 17.495 M316.769 17.595 C 316.552 18.158,316.655 36.473,316.875 36.615 C 317.143 36.789,326.982 36.900,328.792 36.751 L 330.167 36.637 330.167 35.088 C 330.167 33.182,330.579 33.339,325.542 33.336 L 321.667 33.333 321.667 30.833 L 321.667 28.333 325.042 28.331 C 329.273 28.328,329.232 28.343,329.299 26.723 C 329.372 24.941,329.510 25.000,325.238 25.000 L 321.667 25.000 321.667 22.836 L 321.667 20.672 325.875 20.628 L 330.083 20.583 330.083 19.000 L 330.083 17.417 323.477 17.373 C 317.561 17.334,316.860 17.357,316.769 17.595 M205.197 21.042 C 205.242 21.360,205.367 21.424,206.022 21.467 C 206.784 21.516,206.795 21.525,206.901 22.192 C 206.977 22.663,207.106 22.892,207.331 22.951 C 207.605 23.023,207.660 23.213,207.701 24.226 C 207.744 25.277,207.794 25.436,208.125 25.581 C 208.633 25.804,208.705 28.268,208.208 28.451 C 207.757 28.618,207.672 28.842,207.669 29.867 C 207.667 30.657,207.596 30.889,207.250 31.235 C 207.021 31.464,206.833 31.833,206.833 32.054 C 206.833 32.412,206.740 32.469,206.000 32.568 C 205.320 32.658,205.167 32.738,205.167 33.006 C 205.167 33.292,205.050 33.333,204.250 33.333 C 203.462 33.333,203.333 33.289,203.333 33.018 C 203.333 32.823,203.179 32.664,202.928 32.601 C 202.705 32.545,202.475 32.349,202.417 32.166 C 202.358 31.983,202.176 31.833,202.010 31.833 C 201.788 31.833,201.681 31.659,201.604 31.172 C 201.537 30.757,201.374 30.444,201.166 30.333 C 200.742 30.106,200.637 23.833,201.057 23.833 C 201.306 23.833,201.667 23.150,201.667 22.678 C 201.667 22.509,201.821 22.332,202.012 22.282 C 202.203 22.232,202.398 22.040,202.446 21.855 C 202.494 21.670,202.695 21.496,202.892 21.468 C 203.116 21.436,203.270 21.276,203.303 21.042 C 203.351 20.706,203.450 20.667,204.250 20.667 C 205.050 20.667,205.149 20.706,205.197 21.042 M288.402 21.083 C 288.631 21.313,289.004 21.500,289.231 21.500 C 289.532 21.500,289.658 21.601,289.697 21.875 C 289.731 22.116,289.884 22.269,290.125 22.303 C 290.461 22.351,290.500 22.450,290.500 23.250 C 290.500 24.050,290.461 24.149,290.125 24.197 C 289.884 24.231,289.731 24.384,289.697 24.625 C 289.654 24.929,289.537 25.000,289.084 25.000 C 288.551 25.000,288.000 25.345,288.000 25.679 C 288.000 25.764,287.400 25.833,286.667 25.833 L 285.333 25.833 285.333 23.250 L 285.333 20.667 286.659 20.667 C 287.851 20.667,288.027 20.709,288.402 21.083 M21.071 28.429 C 21.380 28.737,21.447 31.309,21.161 31.844 C 20.904 32.324,19.748 32.296,19.484 31.804 C 18.518 29.998,19.836 27.193,21.071 28.429 M25.241 29.870 C 25.609 30.397,25.562 31.048,25.125 31.462 C 24.919 31.657,24.675 31.893,24.583 31.986 C 23.146 33.448,22.255 33.497,21.935 32.130 C 21.652 30.916,24.574 28.919,25.241 29.870 M17.298 30.542 C 18.189 31.252,18.646 31.856,18.772 32.486 C 18.862 32.934,18.945 33.000,19.417 33.000 C 19.715 33.000,20.046 33.104,20.152 33.232 C 20.257 33.359,20.674 33.513,21.077 33.574 C 21.480 33.634,21.988 33.824,22.205 33.995 C 22.423 34.166,22.897 34.357,23.259 34.419 C 23.621 34.480,24.113 34.669,24.352 34.837 C 24.592 35.005,25.079 35.193,25.436 35.254 C 25.792 35.315,26.290 35.510,26.542 35.687 C 26.794 35.865,27.340 36.074,27.756 36.151 C 28.172 36.229,28.646 36.414,28.810 36.563 C 28.974 36.711,29.452 36.897,29.872 36.975 C 30.292 37.054,30.840 37.279,31.090 37.476 C 31.340 37.672,31.760 37.833,32.022 37.833 C 33.008 37.833,33.740 39.715,32.845 39.949 C 32.668 39.995,32.485 40.132,32.438 40.254 C 32.391 40.376,32.011 40.627,31.593 40.812 C 31.055 41.050,30.833 41.246,30.833 41.482 C 30.833 41.809,32.694 43.833,32.994 43.833 C 33.077 43.833,33.192 43.983,33.250 44.167 C 33.308 44.350,33.461 44.500,33.589 44.500 C 33.928 44.500,34.167 45.047,34.167 45.822 C 34.167 46.903,32.501 48.500,31.374 48.500 C 30.537 48.500,30.658 48.586,28.628 46.537 C 28.512 46.420,28.316 46.232,28.193 46.120 C 28.069 46.008,27.798 45.748,27.590 45.542 C 27.050 45.006,26.565 45.051,26.446 45.647 C 26.393 45.911,26.215 46.261,26.051 46.425 C 25.887 46.590,25.675 46.880,25.580 47.070 C 25.198 47.843,23.641 47.586,23.423 46.715 C 23.362 46.474,23.174 46.099,23.003 45.883 C 22.833 45.667,22.643 45.184,22.580 44.811 C 22.516 44.437,22.333 43.999,22.171 43.838 C 22.010 43.677,21.827 43.206,21.765 42.791 C 21.703 42.377,21.511 41.911,21.338 41.754 C 21.166 41.598,20.972 41.158,20.908 40.777 C 20.843 40.395,20.659 39.915,20.498 39.710 C 20.336 39.504,20.152 39.058,20.088 38.719 C 20.025 38.379,19.835 37.926,19.667 37.712 C 19.499 37.498,19.309 37.007,19.246 36.620 C 19.183 36.233,18.982 35.754,18.800 35.556 C 18.446 35.170,18.325 34.180,18.554 33.542 C 18.683 33.182,18.651 33.167,17.791 33.167 C 17.077 33.167,16.821 33.090,16.538 32.792 C 16.343 32.585,16.103 32.342,16.004 32.250 C 14.620 30.958,14.748 30.135,16.352 30.019 C 16.499 30.009,16.925 30.244,17.298 30.542 M17.115 34.477 C 17.945 35.711,16.187 36.604,14.252 35.930 C 13.472 35.659,13.246 35.369,13.385 34.817 C 13.673 33.677,16.409 33.427,17.115 34.477 M21.500 36.583 C 21.500 36.692,21.641 36.909,21.812 37.064 C 21.984 37.220,22.164 37.641,22.212 38.001 C 22.261 38.361,22.451 38.847,22.636 39.082 C 22.821 39.318,23.024 39.816,23.087 40.189 C 23.150 40.563,23.336 41.003,23.500 41.167 C 23.664 41.331,23.853 41.791,23.920 42.191 C 24.082 43.158,24.923 44.184,25.091 43.620 C 25.543 42.104,26.815 41.793,28.000 42.907 C 28.412 43.295,29.043 43.887,29.401 44.223 C 29.758 44.559,30.115 44.833,30.192 44.833 C 30.270 44.833,30.333 44.928,30.333 45.043 C 30.333 45.278,30.983 45.739,31.120 45.602 C 31.285 45.437,30.998 44.968,30.681 44.885 C 30.507 44.840,30.325 44.654,30.278 44.472 C 30.230 44.291,30.043 44.103,29.861 44.056 C 29.679 44.008,29.492 43.821,29.444 43.639 C 29.397 43.457,29.209 43.270,29.028 43.222 C 28.846 43.175,28.659 42.987,28.611 42.806 C 28.564 42.624,28.373 42.435,28.187 42.387 C 27.052 42.090,27.680 40.414,29.250 39.548 L 29.750 39.273 29.017 39.056 C 28.614 38.937,28.164 38.734,28.017 38.605 C 27.870 38.475,27.423 38.316,27.024 38.251 C 26.625 38.185,26.161 37.995,25.994 37.828 C 25.827 37.661,25.347 37.472,24.927 37.409 C 24.507 37.346,23.986 37.156,23.771 36.987 C 23.284 36.604,21.500 36.286,21.500 36.583 M18.033 37.042 L 18.439 37.583 18.093 38.167 C 16.887 40.202,15.000 40.680,15.000 38.951 C 15.000 38.242,16.166 36.833,16.753 36.833 C 16.889 36.833,17.000 36.758,17.000 36.667 C 17.000 36.297,17.652 36.534,18.033 37.042 M112.540 46.041 C 111.860 46.765,112.419 48.361,113.153 47.789 C 113.791 47.291,113.837 46.717,113.290 46.081 L 112.914 45.643 112.540 46.041 M341.533 46.367 C 341.218 46.682,341.298 47.220,341.750 47.833 C 342.054 48.245,342.167 48.608,342.167 49.173 C 342.167 50.342,342.538 50.612,343.539 50.169 C 344.387 49.794,344.501 49.609,344.498 48.611 C 344.495 47.629,344.351 47.210,343.985 47.114 C 343.775 47.060,343.667 46.884,343.667 46.599 C 343.667 46.116,341.969 45.931,341.533 46.367 M102.833 48.242 L 102.833 49.500 79.186 49.500 L 55.539 49.500 55.444 49.864 C 55.247 50.616,55.521 51.683,55.952 51.847 C 56.190 51.937,65.864 52.000,79.594 52.000 L 102.833 52.000 102.833 53.050 C 102.833 54.522,103.310 54.843,104.591 54.235 L 105.148 53.971 105.116 50.527 L 105.083 47.083 103.958 47.034 L 102.833 46.985 102.833 48.242 M349.829 47.428 C 349.424 48.492,349.712 53.882,350.190 54.185 C 351.472 54.997,352.073 54.535,352.131 52.691 L 352.179 51.168 375.798 51.126 L 399.417 51.083 399.467 50.292 L 399.518 49.500 375.842 49.500 L 352.167 49.500 352.167 48.250 L 352.167 47.000 351.079 47.000 C 350.065 47.000,349.981 47.029,349.829 47.428 " stroke="none" fill="#e42c04" fill-rule="evenodd"></path><path id="path1" d="M12.033 14.995 C 9.398 17.379,10.742 20.742,14.127 20.235 C 16.181 19.927,17.082 16.523,15.401 15.422 C 15.197 15.288,14.825 14.989,14.574 14.756 C 13.854 14.089,12.940 14.175,12.033 14.995 M33.739 14.679 C 33.566 14.869,33.219 15.147,32.967 15.296 C 31.815 15.977,31.674 18.553,32.731 19.610 C 34.335 21.214,37.667 19.853,37.667 17.594 C 37.667 17.129,37.007 15.621,36.757 15.516 C 36.670 15.479,36.339 15.198,36.023 14.891 C 35.315 14.203,34.258 14.105,33.739 14.679 M19.944 29.111 C 19.607 29.449,19.838 30.949,20.258 31.140 C 20.817 31.395,20.791 31.407,20.917 30.830 C 21.185 29.611,20.556 28.500,19.944 29.111 M23.443 30.973 C 22.780 31.652,22.713 31.859,23.061 32.148 C 23.293 32.340,24.667 31.220,24.667 30.839 C 24.667 30.302,24.030 30.372,23.443 30.973 M15.950 30.772 C 15.678 31.044,17.084 32.667,17.593 32.667 C 18.012 32.667,17.753 31.864,17.122 31.208 C 16.632 30.698,16.189 30.533,15.950 30.772 M19.225 33.995 L 18.867 34.143 19.267 34.933 C 19.487 35.368,19.667 35.819,19.667 35.936 C 19.667 36.053,19.854 36.502,20.083 36.933 C 20.313 37.364,20.500 37.883,20.500 38.086 C 20.500 38.289,20.651 38.647,20.835 38.881 C 21.019 39.115,21.216 39.556,21.273 39.861 C 21.330 40.167,21.512 40.642,21.676 40.917 C 21.840 41.192,22.064 41.773,22.174 42.208 C 22.283 42.644,22.437 43.000,22.515 43.000 C 22.593 43.000,22.781 43.431,22.931 43.958 C 23.082 44.485,23.304 45.029,23.424 45.167 C 23.544 45.304,23.731 45.773,23.841 46.208 C 24.060 47.083,25.167 47.476,25.167 46.679 C 25.167 46.503,25.338 46.147,25.548 45.888 C 25.758 45.629,26.019 45.210,26.128 44.958 C 26.533 44.021,27.316 44.370,29.366 46.400 C 31.319 48.334,31.412 48.352,32.714 47.037 C 33.693 46.047,33.883 45.532,33.417 45.132 C 30.110 42.291,29.496 41.133,30.917 40.416 C 32.029 39.854,32.665 39.426,32.666 39.237 C 32.668 38.911,31.910 38.340,31.325 38.228 C 31.009 38.168,30.413 37.942,30.001 37.726 C 29.590 37.510,29.124 37.333,28.968 37.333 C 28.603 37.333,27.833 36.985,27.833 36.820 C 27.833 36.751,27.445 36.611,26.971 36.509 C 26.496 36.408,25.877 36.185,25.596 36.016 C 25.314 35.846,24.810 35.659,24.475 35.599 C 24.141 35.540,23.781 35.387,23.675 35.260 C 23.570 35.133,23.093 34.936,22.617 34.822 C 22.140 34.708,21.563 34.482,21.333 34.320 C 20.828 33.963,19.716 33.792,19.225 33.995 M14.199 34.786 C 13.382 34.942,13.964 35.251,15.164 35.299 C 16.628 35.359,16.962 35.273,16.665 34.915 C 16.464 34.673,15.150 34.604,14.199 34.786 M22.720 35.919 C 22.915 36.055,23.234 36.167,23.429 36.167 C 23.624 36.167,24.136 36.354,24.567 36.583 C 24.998 36.813,25.486 37.000,25.651 37.000 C 25.815 37.000,26.280 37.175,26.684 37.389 C 27.087 37.603,27.642 37.830,27.917 37.895 C 28.724 38.083,30.500 39.030,30.500 39.273 C 30.500 39.479,30.075 39.814,28.702 40.691 C 28.000 41.139,28.084 41.279,30.429 43.575 C 32.229 45.337,32.560 45.916,32.054 46.422 C 31.496 46.980,30.854 46.649,29.090 44.891 C 26.653 42.462,26.211 42.380,25.508 44.228 C 25.110 45.275,24.021 44.614,23.566 43.049 C 23.426 42.567,23.242 42.130,23.158 42.078 C 23.073 42.026,22.882 41.556,22.733 41.033 C 22.583 40.511,22.358 39.966,22.233 39.822 C 22.107 39.679,21.955 39.304,21.895 38.989 C 21.834 38.674,21.616 38.117,21.409 37.750 C 20.315 35.815,21.069 34.762,22.720 35.919 M16.833 37.455 C 16.104 37.743,15.070 39.500,15.630 39.500 C 16.058 39.500,17.720 37.910,17.616 37.599 C 17.545 37.383,17.183 37.317,16.833 37.455 " stroke="none" fill="#faeae5" fill-rule="evenodd"></path><path id="path2" d="M11.500 14.396 C 11.500 14.661,11.383 14.848,11.175 14.914 C 10.997 14.971,10.802 15.171,10.742 15.358 C 10.683 15.546,10.491 15.842,10.317 16.016 C 9.755 16.579,9.864 18.617,10.500 19.417 C 10.775 19.763,11.000 20.105,11.000 20.177 C 11.000 20.249,11.281 20.399,11.625 20.511 C 11.969 20.623,12.398 20.816,12.579 20.940 C 14.635 22.356,18.404 17.933,16.694 16.112 C 16.495 15.901,16.333 15.641,16.333 15.535 C 16.333 15.428,16.146 15.218,15.917 15.068 C 15.660 14.900,15.500 14.638,15.500 14.388 C 15.500 14.159,15.427 14.025,15.333 14.083 C 15.048 14.259,15.150 14.910,15.497 15.126 C 16.564 15.793,16.920 17.778,16.204 19.070 C 14.773 21.654,10.609 20.795,10.212 17.834 C 10.111 17.082,10.831 15.482,11.454 15.074 C 11.844 14.819,11.962 14.266,11.667 14.083 C 11.573 14.025,11.500 14.161,11.500 14.396 M32.667 14.412 C 32.667 14.650,32.564 14.883,32.439 14.931 C 30.555 15.654,31.003 19.921,33.026 20.528 C 33.381 20.634,33.754 20.821,33.856 20.944 C 34.096 21.233,35.166 21.231,35.588 20.940 C 35.769 20.816,36.198 20.622,36.543 20.510 C 36.887 20.398,37.253 20.144,37.355 19.945 C 37.458 19.746,37.701 19.408,37.896 19.195 C 38.465 18.570,38.399 16.575,37.785 15.845 C 37.537 15.549,37.333 15.244,37.333 15.165 C 37.333 15.087,37.176 14.973,36.984 14.911 C 36.723 14.829,36.653 14.699,36.711 14.400 C 36.806 13.899,36.563 13.871,36.407 14.365 C 36.319 14.640,36.395 14.815,36.714 15.074 C 39.411 17.256,37.346 21.282,33.922 20.516 C 31.525 19.979,30.685 16.366,32.670 15.126 C 33.016 14.910,33.118 14.259,32.833 14.083 C 32.739 14.025,32.667 14.167,32.667 14.412 M44.333 16.250 C 44.333 16.387,44.413 16.500,44.510 16.500 C 44.607 16.500,44.641 16.574,44.585 16.665 C 44.526 16.760,44.595 16.787,44.749 16.727 C 44.989 16.635,44.987 16.596,44.731 16.313 C 44.389 15.935,44.333 15.926,44.333 16.250 M344.042 17.450 C 343.927 17.493,343.833 17.672,343.833 17.847 C 343.833 18.077,343.716 18.167,343.417 18.167 C 343.083 18.167,343.000 18.250,343.000 18.583 C 343.000 18.917,342.917 19.000,342.583 19.000 C 342.202 19.000,342.069 19.216,342.147 19.708 C 342.164 19.818,341.791 19.901,341.473 19.858 C 341.412 19.850,341.285 20.066,341.190 20.338 C 341.095 20.611,340.901 20.833,340.759 20.833 C 340.616 20.833,340.491 20.965,340.481 21.125 C 340.470 21.285,340.444 21.492,340.423 21.583 C 340.402 21.675,340.373 22.088,340.359 22.502 C 340.338 23.109,340.261 23.286,339.958 23.419 C 339.313 23.702,339.340 31.333,339.987 31.333 C 340.201 31.333,340.277 31.503,340.307 32.042 C 340.361 33.053,340.478 33.333,340.845 33.333 C 341.022 33.333,341.176 33.408,341.188 33.500 C 341.199 33.592,341.218 33.735,341.229 33.819 C 341.241 33.903,341.301 34.023,341.364 34.086 C 341.426 34.148,341.441 34.292,341.398 34.406 C 341.326 34.592,341.800 35.144,341.942 35.042 C 342.286 34.793,343.000 35.047,343.000 35.417 C 343.000 35.750,343.083 35.833,343.417 35.833 C 343.743 35.833,343.833 35.918,343.833 36.226 C 343.833 36.709,344.556 36.810,348.000 36.810 C 351.423 36.810,352.167 36.708,352.167 36.235 C 352.167 35.896,352.258 35.846,352.958 35.801 C 353.634 35.757,353.758 35.695,353.803 35.375 C 353.837 35.139,353.972 35.000,354.168 35.000 C 354.565 35.000,354.643 34.866,354.695 34.093 C 354.727 33.620,354.828 33.430,355.107 33.324 C 355.498 33.176,355.813 31.955,355.602 31.405 C 355.502 31.145,355.889 30.417,356.127 30.417 C 356.480 30.417,356.272 29.468,355.887 29.322 C 355.329 29.110,351.506 29.120,351.479 29.333 C 351.468 29.425,351.440 29.575,351.417 29.667 C 351.394 29.758,351.366 30.104,351.354 30.434 C 351.339 30.872,351.271 31.012,351.104 30.948 C 350.742 30.809,350.500 31.177,350.500 31.867 C 350.500 32.442,350.458 32.502,350.042 32.519 C 349.790 32.530,349.508 32.556,349.417 32.577 C 349.325 32.598,349.156 32.627,349.042 32.641 C 348.927 32.655,348.842 32.723,348.853 32.792 C 348.924 33.242,348.781 33.333,348.000 33.333 C 347.219 33.333,347.076 33.242,347.147 32.792 C 347.158 32.723,347.092 32.657,347.000 32.646 C 346.908 32.634,346.758 32.606,346.667 32.583 C 346.575 32.560,346.396 32.532,346.269 32.521 C 346.141 32.509,346.047 32.369,346.060 32.208 C 346.075 32.023,345.946 31.897,345.706 31.863 C 345.498 31.834,345.370 31.741,345.422 31.658 C 345.556 31.441,345.194 30.829,344.958 30.877 C 344.570 30.955,344.431 27.331,344.664 23.208 C 344.666 23.185,344.809 23.167,344.982 23.167 C 345.310 23.167,345.571 22.749,345.407 22.485 C 345.356 22.402,345.470 22.333,345.660 22.333 C 345.869 22.333,346.083 22.167,346.197 21.917 C 346.301 21.688,346.523 21.500,346.690 21.500 C 346.875 21.500,347.035 21.337,347.098 21.083 C 347.192 20.710,347.287 20.667,348.018 20.667 C 348.749 20.667,348.869 20.733,348.819 21.106 C 348.791 21.319,349.265 21.495,349.875 21.497 C 350.510 21.500,350.643 21.769,350.514 22.787 C 350.499 22.899,350.674 23.037,350.902 23.095 C 351.258 23.184,351.323 23.307,351.367 23.968 C 351.426 24.885,351.595 24.965,353.500 24.971 C 355.143 24.977,356.205 24.805,356.300 24.518 C 356.352 24.361,356.303 24.329,356.147 24.418 C 355.961 24.524,355.957 24.506,356.125 24.324 C 356.453 23.971,356.370 23.570,355.926 23.368 C 355.580 23.210,355.532 23.099,355.609 22.627 C 355.731 21.872,355.384 20.611,355.086 20.726 C 354.882 20.804,354.534 19.699,354.634 19.295 C 354.651 19.227,354.478 19.126,354.249 19.068 C 354.000 19.006,353.833 18.845,353.833 18.666 C 353.833 18.313,353.512 18.167,352.736 18.167 C 352.289 18.167,352.167 18.099,352.167 17.851 C 352.167 17.678,352.042 17.488,351.890 17.430 C 351.579 17.310,344.364 17.328,344.042 17.450 M359.000 26.982 L 359.000 36.631 359.375 36.724 C 359.917 36.859,363.546 36.770,363.787 36.617 C 364.007 36.476,364.078 29.883,363.862 29.560 C 363.800 29.468,363.619 29.344,363.458 29.285 C 363.220 29.197,363.167 28.972,363.167 28.057 C 363.167 27.076,363.195 26.975,363.391 27.244 C 363.515 27.413,363.702 27.498,363.808 27.432 C 363.924 27.360,364.007 27.432,364.018 27.615 C 364.037 27.950,364.123 28.695,364.216 29.333 C 364.255 29.604,364.399 29.768,364.626 29.802 C 364.867 29.837,364.971 29.967,364.958 30.218 C 364.898 31.373,364.991 31.667,365.417 31.667 C 365.823 31.667,365.833 31.697,365.833 32.881 C 365.833 33.998,365.862 34.098,366.186 34.122 C 366.658 34.158,366.641 34.118,366.684 35.298 C 366.735 36.725,366.675 36.693,369.417 36.720 C 371.695 36.742,371.667 36.759,371.667 35.339 C 371.667 34.300,371.703 34.167,371.982 34.167 C 372.351 34.167,372.500 33.855,372.500 33.081 C 372.500 32.669,372.587 32.495,372.833 32.417 C 373.017 32.358,373.176 32.203,373.188 32.072 C 373.199 31.941,373.227 31.758,373.250 31.667 C 373.273 31.575,373.301 31.168,373.313 30.762 C 373.330 30.130,373.388 30.015,373.708 29.970 C 374.121 29.911,374.116 29.927,374.146 28.500 C 374.164 27.633,374.209 27.500,374.486 27.500 C 374.662 27.500,374.843 27.406,374.890 27.292 C 374.955 27.131,375.048 35.978,374.986 36.440 C 374.949 36.711,375.535 36.813,377.078 36.803 C 379.623 36.786,379.348 38.008,379.295 26.950 L 379.250 17.417 376.333 17.417 L 373.417 17.417 373.333 18.333 C 373.273 19.000,373.182 19.250,373.000 19.250 C 372.863 19.250,372.741 19.344,372.729 19.458 C 372.718 19.573,372.690 19.704,372.667 19.750 C 372.574 19.934,372.541 20.200,372.521 20.899 C 372.503 21.532,372.444 21.645,372.083 21.735 C 371.689 21.834,371.667 21.901,371.667 23.003 C 371.667 24.133,371.655 24.167,371.250 24.167 C 370.862 24.167,370.833 24.223,370.833 24.989 C 370.833 25.660,370.773 25.830,370.506 25.915 C 370.171 26.021,370.043 26.451,369.959 27.750 L 369.917 28.417 369.187 28.381 C 368.298 28.339,368.356 28.399,368.326 27.495 C 368.294 26.521,368.170 25.838,368.029 25.857 C 367.629 25.913,367.500 25.775,367.498 25.292 C 367.495 24.232,367.299 23.512,366.988 23.413 C 366.779 23.347,366.649 23.081,366.571 22.562 C 366.486 21.991,366.362 21.763,366.062 21.627 C 365.701 21.462,365.493 20.293,365.646 19.295 C 365.656 19.227,365.478 19.126,365.249 19.068 C 364.877 18.975,364.833 18.879,364.833 18.149 L 364.833 17.333 361.917 17.333 L 359.000 17.333 359.000 26.982 M386.111 17.444 C 386.050 17.506,386.000 17.689,386.000 17.852 C 386.000 18.087,385.837 18.159,385.208 18.199 C 384.552 18.241,384.417 18.305,384.417 18.575 C 384.417 18.785,384.269 18.936,384.000 18.999 C 383.745 19.059,383.564 19.233,383.532 19.448 C 383.504 19.641,383.323 19.938,383.129 20.108 C 382.935 20.278,382.838 20.311,382.914 20.183 C 383.002 20.032,382.988 19.988,382.875 20.058 C 382.338 20.389,382.707 25.815,383.252 25.606 C 383.436 25.535,383.500 25.634,383.500 25.992 C 383.500 26.389,383.586 26.492,383.990 26.581 C 384.286 26.646,384.449 26.771,384.401 26.897 C 384.305 27.148,384.901 27.471,385.583 27.536 C 385.858 27.562,386.093 27.677,386.104 27.792 C 386.116 27.906,386.134 28.062,386.146 28.137 C 386.157 28.212,386.556 28.292,387.032 28.313 C 387.958 28.356,388.167 28.424,388.167 28.686 C 388.167 28.778,388.080 28.799,387.974 28.734 C 387.850 28.657,387.827 28.689,387.910 28.822 C 387.980 28.936,388.179 28.992,388.352 28.947 C 388.525 28.902,388.708 28.933,388.760 29.016 C 388.811 29.099,389.228 29.167,389.686 29.167 C 390.145 29.167,390.483 29.226,390.438 29.300 C 390.265 29.578,390.645 29.862,391.309 29.951 C 391.837 30.022,392.000 30.117,392.000 30.352 C 392.000 30.542,392.160 30.701,392.417 30.765 C 392.950 30.899,393.001 31.591,392.489 31.753 C 392.300 31.813,392.085 32.024,392.012 32.222 C 391.939 32.420,391.738 32.582,391.565 32.582 C 391.366 32.583,391.230 32.721,391.197 32.958 C 391.149 33.295,391.050 33.333,390.238 33.333 C 389.397 33.333,389.257 33.256,389.304 32.819 C 389.310 32.766,389.225 32.710,389.116 32.694 C 387.918 32.526,387.690 32.442,387.611 32.138 C 387.563 31.957,387.369 31.768,387.179 31.718 C 386.889 31.642,386.833 31.497,386.833 30.814 L 386.833 30.000 384.434 30.000 C 381.750 30.000,381.833 29.960,381.833 31.250 C 381.833 32.187,381.963 32.500,382.351 32.500 C 382.619 32.500,382.667 32.627,382.667 33.333 C 382.667 34.111,382.694 34.167,383.083 34.167 C 383.417 34.167,383.500 34.250,383.500 34.583 C 383.500 34.917,383.583 35.000,383.917 35.000 C 384.296 35.000,384.427 35.219,384.292 35.625 C 384.269 35.694,384.662 35.787,385.167 35.833 C 385.932 35.903,386.083 35.970,386.084 36.238 C 386.085 36.719,386.740 36.823,389.743 36.822 C 392.982 36.820,394.499 36.695,394.405 36.437 C 394.273 36.076,394.596 35.856,395.336 35.803 C 395.941 35.760,396.074 35.694,396.034 35.457 C 396.003 35.271,396.139 35.106,396.409 35.003 C 396.642 34.914,396.833 34.798,396.833 34.744 C 396.833 34.691,396.759 34.693,396.669 34.749 C 396.574 34.807,396.546 34.741,396.603 34.593 C 396.657 34.451,396.769 34.377,396.851 34.427 C 396.933 34.478,397.000 34.029,397.000 33.428 C 397.000 32.396,397.020 32.339,397.375 32.377 C 397.716 32.413,397.753 32.341,397.779 31.583 C 397.811 30.624,397.715 30.167,397.479 30.167 C 397.388 30.167,397.359 30.241,397.415 30.331 C 397.474 30.426,397.407 30.454,397.259 30.397 C 397.065 30.323,397.000 30.049,397.000 29.316 C 397.000 28.386,396.978 28.333,396.595 28.333 C 396.302 28.333,396.175 28.230,396.137 27.958 C 396.102 27.717,395.949 27.564,395.708 27.530 C 395.437 27.492,395.333 27.365,395.333 27.072 C 395.333 26.731,395.252 26.667,394.823 26.667 C 394.543 26.667,394.356 26.598,394.407 26.515 C 394.691 26.056,394.283 25.833,393.160 25.833 C 392.108 25.833,392.019 25.805,391.970 25.458 C 391.921 25.116,391.806 25.076,390.667 25.000 C 389.527 24.924,389.412 24.884,389.363 24.542 C 389.316 24.211,389.214 24.167,388.488 24.167 L 387.667 24.167 387.667 22.833 L 387.667 21.500 388.250 21.479 C 389.214 21.445,389.248 21.431,389.303 21.042 C 389.375 20.534,390.251 20.501,390.382 21.001 C 390.444 21.238,390.553 21.302,390.762 21.222 C 390.965 21.145,391.017 21.171,390.932 21.309 C 390.864 21.419,390.870 21.498,390.946 21.484 C 391.620 21.367,392.000 21.523,392.000 21.917 C 392.000 22.250,392.083 22.333,392.417 22.333 C 392.806 22.333,392.833 22.388,392.833 23.179 L 392.833 24.026 395.208 23.971 C 396.997 23.930,397.573 23.865,397.542 23.708 C 397.519 23.594,397.562 23.500,397.639 23.500 C 397.858 23.500,397.801 22.944,397.557 22.700 C 397.435 22.578,397.260 22.525,397.168 22.583 C 397.061 22.649,397.000 22.237,397.000 21.447 C 397.000 20.281,396.732 19.603,396.349 19.802 C 396.295 19.830,396.209 19.680,396.160 19.468 C 396.107 19.242,395.925 19.062,395.717 19.032 C 395.506 19.001,395.324 18.818,395.262 18.574 C 395.174 18.220,395.065 18.167,394.432 18.167 C 393.793 18.167,393.690 18.115,393.598 17.750 L 393.494 17.333 389.858 17.333 C 387.858 17.333,386.172 17.383,386.111 17.444 M216.078 27.083 C 216.078 32.033,216.099 34.034,216.125 31.530 C 216.151 29.026,216.151 24.976,216.125 22.530 C 216.099 20.084,216.078 22.133,216.078 27.083 M19.873 28.339 C 18.628 28.839,19.028 32.167,20.333 32.167 C 21.196 32.167,21.333 31.883,21.333 30.106 C 21.333 28.282,21.005 27.885,19.873 28.339 M21.066 28.930 C 21.410 29.827,21.017 31.939,20.540 31.756 C 20.411 31.707,20.212 31.667,20.096 31.667 C 19.577 31.667,19.245 29.322,19.700 28.867 C 19.996 28.571,20.944 28.615,21.066 28.930 M22.873 30.599 C 21.797 31.710,21.658 32.180,22.229 32.781 C 22.816 33.398,23.383 33.207,24.583 31.986 C 24.675 31.893,24.919 31.657,25.125 31.462 C 25.865 30.761,25.425 29.491,24.449 29.511 C 24.019 29.519,23.715 29.729,22.873 30.599 M15.750 30.117 C 14.732 30.355,14.827 31.151,16.004 32.250 C 16.103 32.342,16.343 32.585,16.538 32.792 C 16.821 33.090,17.077 33.167,17.791 33.167 C 18.651 33.167,18.683 33.182,18.554 33.542 C 18.325 34.180,18.446 35.170,18.800 35.556 C 18.982 35.754,19.183 36.233,19.246 36.620 C 19.309 37.007,19.499 37.498,19.667 37.712 C 19.835 37.926,20.025 38.379,20.088 38.719 C 20.152 39.058,20.336 39.504,20.498 39.710 C 20.659 39.915,20.843 40.395,20.908 40.777 C 20.972 41.158,21.166 41.598,21.338 41.754 C 21.511 41.911,21.703 42.377,21.765 42.791 C 21.827 43.206,22.010 43.677,22.171 43.838 C 22.333 43.999,22.516 44.437,22.580 44.811 C 22.643 45.184,22.833 45.667,23.003 45.883 C 23.174 46.099,23.362 46.474,23.423 46.715 C 23.641 47.586,25.198 47.843,25.580 47.070 C 25.675 46.880,25.887 46.590,26.051 46.425 C 26.215 46.261,26.393 45.911,26.446 45.647 C 26.565 45.051,27.050 45.006,27.590 45.542 C 27.798 45.748,28.069 46.008,28.193 46.120 C 28.316 46.232,28.512 46.420,28.628 46.537 C 30.658 48.586,30.537 48.500,31.374 48.500 C 32.501 48.500,34.167 46.903,34.167 45.822 C 34.167 45.047,33.928 44.500,33.589 44.500 C 33.461 44.500,33.308 44.350,33.250 44.167 C 33.192 43.983,33.077 43.833,32.994 43.833 C 32.694 43.833,30.833 41.809,30.833 41.482 C 30.833 41.246,31.055 41.050,31.593 40.812 C 32.011 40.627,32.391 40.376,32.438 40.254 C 32.485 40.132,32.668 39.995,32.845 39.949 C 33.740 39.715,33.008 37.833,32.022 37.833 C 31.760 37.833,31.340 37.672,31.090 37.476 C 30.840 37.279,30.292 37.054,29.872 36.975 C 29.452 36.897,28.974 36.711,28.810 36.563 C 28.646 36.414,28.172 36.229,27.756 36.151 C 27.340 36.074,26.794 35.865,26.542 35.687 C 26.290 35.510,25.792 35.315,25.436 35.254 C 25.079 35.193,24.592 35.005,24.352 34.837 C 24.113 34.669,23.621 34.480,23.259 34.419 C 22.897 34.357,22.423 34.166,22.205 33.995 C 21.988 33.824,21.480 33.634,21.077 33.574 C 20.674 33.513,20.257 33.359,20.152 33.232 C 20.046 33.104,19.715 33.000,19.417 33.000 C 18.945 33.000,18.862 32.934,18.772 32.486 C 18.646 31.856,18.189 31.252,17.298 30.542 C 16.636 30.013,16.432 29.957,15.750 30.117 M24.905 30.262 C 25.319 30.676,25.228 30.896,24.239 31.877 C 23.231 32.877,22.772 32.966,22.487 32.216 C 22.105 31.210,24.177 29.534,24.905 30.262 M17.274 30.958 C 18.471 32.085,18.586 33.000,17.532 33.000 C 17.213 33.000,16.179 32.083,15.684 31.362 C 14.920 30.248,16.180 29.928,17.274 30.958 M20.596 33.729 C 21.062 33.853,21.624 34.070,21.846 34.211 C 22.068 34.352,22.506 34.521,22.819 34.586 C 23.132 34.652,23.724 34.884,24.136 35.103 C 24.547 35.321,25.003 35.502,25.150 35.505 C 25.297 35.508,25.792 35.695,26.250 35.920 C 26.708 36.146,27.196 36.331,27.333 36.333 C 27.471 36.334,27.808 36.455,28.083 36.602 C 28.570 36.861,29.188 37.100,31.250 37.829 C 33.476 38.615,33.480 39.495,31.264 40.585 C 30.056 41.178,30.179 41.594,32.126 43.493 C 34.332 45.643,34.366 45.807,32.917 47.256 C 31.403 48.770,31.336 48.758,29.111 46.583 C 27.146 44.664,26.666 44.443,26.290 45.292 C 26.078 45.769,25.465 46.766,25.162 47.125 C 24.764 47.598,23.998 47.373,23.741 46.708 C 23.608 46.365,23.349 45.806,23.166 45.467 C 22.983 45.128,22.833 44.750,22.833 44.627 C 22.833 44.504,22.685 44.113,22.504 43.757 C 22.322 43.402,22.090 42.842,21.987 42.514 C 21.884 42.185,21.620 41.546,21.400 41.092 C 21.180 40.639,21.000 40.174,21.000 40.059 C 21.000 39.945,20.813 39.498,20.583 39.067 C 20.354 38.636,20.167 38.178,20.167 38.050 C 20.167 37.921,20.024 37.539,19.850 37.200 C 18.204 33.994,18.388 33.141,20.596 33.729 M56.475 33.632 C 56.425 33.873,56.382 34.263,56.358 34.697 C 56.340 35.024,56.233 35.158,55.958 35.197 C 55.643 35.241,55.580 35.360,55.559 35.939 L 55.536 36.627 56.309 36.716 C 56.735 36.765,57.440 36.763,57.875 36.713 L 58.667 36.620 58.667 35.664 C 58.667 34.717,58.389 34.177,58.019 34.405 C 57.929 34.460,57.832 34.298,57.803 34.044 C 57.753 33.606,56.558 33.235,56.475 33.632 M13.952 34.126 C 13.016 34.711,13.155 35.549,14.252 35.930 C 16.187 36.604,17.945 35.711,17.115 34.477 C 16.649 33.784,14.823 33.581,13.952 34.126 M16.847 34.680 C 17.468 35.302,16.908 35.667,15.333 35.667 C 13.900 35.667,13.283 35.337,13.710 34.799 C 14.178 34.209,16.296 34.129,16.847 34.680 M21.370 35.779 C 21.093 35.890,21.272 36.891,21.692 37.580 C 21.861 37.857,21.999 38.203,21.999 38.350 C 22.000 38.497,22.188 38.970,22.417 39.401 C 22.646 39.832,22.833 40.277,22.833 40.390 C 22.833 40.504,22.978 40.881,23.156 41.228 C 23.333 41.576,23.594 42.202,23.737 42.620 C 24.274 44.197,24.989 44.806,25.298 43.951 C 25.407 43.649,25.750 43.157,26.059 42.857 L 26.621 42.312 27.185 42.702 C 27.496 42.917,28.493 43.826,29.401 44.721 C 30.749 46.051,31.132 46.341,31.485 46.300 C 32.315 46.204,31.950 45.551,29.912 43.488 C 27.485 41.031,27.473 40.863,29.625 39.725 C 30.232 39.404,30.307 39.203,29.875 39.060 C 29.715 39.007,29.208 38.789,28.750 38.576 C 28.292 38.363,27.617 38.099,27.250 37.990 C 26.883 37.880,26.508 37.732,26.417 37.660 C 26.325 37.589,25.837 37.381,25.333 37.198 C 22.805 36.282,22.099 35.999,21.940 35.840 C 21.753 35.653,21.697 35.647,21.370 35.779 M23.771 36.987 C 23.986 37.156,24.507 37.346,24.927 37.409 C 25.347 37.472,25.827 37.661,25.994 37.828 C 26.161 37.995,26.625 38.185,27.024 38.251 C 27.423 38.316,27.870 38.475,28.017 38.605 C 28.164 38.734,28.614 38.937,29.017 39.056 L 29.750 39.273 29.250 39.548 C 27.680 40.414,27.052 42.090,28.187 42.387 C 28.373 42.435,28.564 42.624,28.611 42.806 C 28.659 42.987,28.846 43.175,29.028 43.222 C 29.209 43.270,29.397 43.457,29.444 43.639 C 29.492 43.821,29.679 44.008,29.861 44.056 C 30.043 44.103,30.230 44.291,30.278 44.472 C 30.325 44.654,30.507 44.840,30.681 44.885 C 30.998 44.968,31.285 45.437,31.120 45.602 C 30.983 45.739,30.333 45.278,30.333 45.043 C 30.333 44.928,30.270 44.833,30.192 44.833 C 30.115 44.833,29.758 44.559,29.401 44.223 C 29.043 43.887,28.412 43.295,28.000 42.907 C 26.815 41.793,25.543 42.104,25.091 43.620 C 24.923 44.184,24.082 43.158,23.920 42.191 C 23.853 41.791,23.664 41.331,23.500 41.167 C 23.336 41.003,23.150 40.563,23.087 40.189 C 23.024 39.816,22.821 39.318,22.636 39.082 C 22.451 38.847,22.261 38.361,22.212 38.001 C 22.164 37.641,21.984 37.220,21.812 37.064 C 21.004 36.333,22.847 36.260,23.771 36.987 M17.000 36.667 C 17.000 36.758,16.889 36.833,16.753 36.833 C 16.166 36.833,15.000 38.242,15.000 38.951 C 15.000 40.680,16.887 40.202,18.093 38.167 L 18.439 37.583 18.033 37.042 C 17.652 36.534,17.000 36.297,17.000 36.667 M17.839 37.345 C 18.189 37.998,16.625 39.718,15.758 39.633 C 14.879 39.547,14.961 38.824,15.964 37.822 C 16.876 36.909,17.519 36.746,17.839 37.345 M46.883 45.000 C 46.883 45.504,46.915 45.710,46.953 45.458 C 46.991 45.206,46.991 44.794,46.953 44.542 C 46.915 44.290,46.883 44.496,46.883 45.000 M112.500 47.790 C 112.500 48.144,112.864 48.208,113.141 47.904 C 113.364 47.660,113.366 47.639,113.154 47.797 C 112.954 47.946,112.846 47.946,112.696 47.796 C 112.553 47.653,112.500 47.651,112.500 47.790 M343.124 50.347 C 342.963 50.441,342.745 50.465,342.640 50.400 C 342.522 50.327,342.494 50.356,342.567 50.474 C 342.732 50.741,343.086 50.715,343.333 50.417 C 343.574 50.126,343.529 50.111,343.124 50.347 " stroke="none" fill="#f47b0e" fill-rule="evenodd"></path><path id="path3" d="M19.111 0.611 C 19.050 0.672,19.000 0.860,19.000 1.028 C 19.000 1.283,18.864 1.333,18.167 1.333 C 17.389 1.333,17.333 1.361,17.333 1.750 C 17.333 2.116,17.262 2.167,16.740 2.167 C 16.384 2.167,16.189 2.234,16.251 2.335 C 16.308 2.427,16.218 2.553,16.052 2.616 C 15.886 2.678,15.672 2.833,15.577 2.960 C 15.482 3.087,15.294 3.166,15.160 3.137 C 15.026 3.107,14.907 3.196,14.894 3.333 C 14.882 3.471,14.863 3.664,14.853 3.763 C 14.842 3.862,14.665 3.937,14.458 3.930 C 14.169 3.920,14.071 4.021,14.031 4.375 C 14.002 4.627,13.833 4.911,13.657 5.005 C 13.460 5.111,13.295 5.434,13.229 5.842 C 13.171 6.208,13.046 6.555,12.952 6.613 C 12.855 6.673,12.833 6.636,12.901 6.526 C 12.966 6.420,12.959 6.334,12.885 6.336 C 12.685 6.340,12.303 6.604,12.319 6.727 C 12.474 7.887,12.305 8.804,11.917 8.902 L 11.500 9.006 11.500 11.493 C 11.500 12.972,11.568 14.022,11.667 14.083 C 11.962 14.266,11.844 14.819,11.454 15.074 C 10.831 15.482,10.111 17.082,10.212 17.834 C 10.609 20.795,14.773 21.654,16.204 19.070 C 16.920 17.778,16.564 15.793,15.497 15.126 C 15.109 14.884,15.057 14.198,15.417 14.060 C 15.620 13.982,15.667 13.582,15.667 11.905 C 15.667 9.929,15.906 9.128,16.361 9.583 C 16.400 9.623,16.451 9.387,16.473 9.059 C 16.513 8.467,16.813 8.000,17.155 8.000 C 17.253 8.000,17.333 7.813,17.333 7.583 C 17.333 7.202,17.549 7.069,18.042 7.147 C 18.110 7.158,18.158 7.110,18.147 7.042 C 18.069 6.549,18.202 6.333,18.583 6.333 C 18.917 6.333,19.000 6.250,19.000 5.917 C 19.000 5.547,19.070 5.500,19.625 5.497 C 20.378 5.494,20.749 5.289,20.619 4.949 C 20.543 4.752,20.691 4.683,21.303 4.629 C 22.339 4.539,22.543 4.470,22.801 4.125 C 23.044 3.800,25.000 3.689,25.000 4.000 C 25.000 4.092,25.131 4.168,25.292 4.169 C 25.544 4.171,25.549 4.196,25.333 4.350 C 25.132 4.494,25.157 4.513,25.458 4.447 C 25.665 4.402,25.833 4.419,25.833 4.484 C 25.833 4.550,26.185 4.623,26.614 4.645 C 27.481 4.690,27.719 4.780,27.576 5.012 C 27.523 5.097,27.602 5.167,27.750 5.167 C 27.898 5.167,27.981 5.230,27.933 5.307 C 27.886 5.384,28.117 5.457,28.447 5.469 C 29.144 5.495,29.176 5.516,29.210 5.970 C 29.224 6.157,29.277 6.307,29.326 6.302 C 29.897 6.250,30.121 6.367,30.103 6.708 C 30.089 6.978,30.189 7.098,30.458 7.137 C 30.786 7.183,30.922 7.438,30.853 7.875 C 30.842 7.944,30.937 8.000,31.063 8.000 C 31.417 8.000,31.687 8.423,31.703 9.002 C 31.714 9.393,31.819 9.566,32.109 9.676 C 32.539 9.840,32.536 9.817,32.501 12.437 C 32.485 13.671,32.530 13.976,32.741 14.057 C 33.108 14.198,33.063 14.881,32.670 15.126 C 30.708 16.351,31.513 19.943,33.876 20.510 C 37.302 21.332,39.424 17.267,36.714 15.074 C 36.296 14.735,36.275 14.000,36.683 14.000 C 36.780 14.000,36.836 13.067,36.824 11.663 C 36.803 9.329,36.724 8.991,36.152 8.801 C 36.048 8.766,35.959 8.381,35.953 7.944 C 35.947 7.508,35.884 7.114,35.812 7.070 C 35.740 7.026,35.721 6.886,35.769 6.760 C 35.820 6.627,35.719 6.486,35.529 6.426 C 35.348 6.368,35.152 6.130,35.093 5.896 C 35.035 5.663,34.786 5.285,34.540 5.058 C 34.294 4.830,34.091 4.480,34.088 4.280 C 34.085 4.012,33.985 3.920,33.708 3.930 C 33.502 3.937,33.324 3.843,33.313 3.722 C 33.301 3.600,33.282 3.406,33.270 3.292 C 33.259 3.177,33.115 3.083,32.952 3.082 C 32.788 3.081,32.561 2.894,32.448 2.665 C 32.285 2.337,32.095 2.239,31.538 2.199 C 30.916 2.154,30.833 2.100,30.833 1.740 C 30.833 1.358,30.778 1.333,29.907 1.333 C 29.393 1.333,29.022 1.266,29.074 1.182 C 29.126 1.098,29.122 0.911,29.066 0.765 C 28.960 0.489,19.381 0.341,19.111 0.611 M14.574 14.756 C 14.825 14.989,15.197 15.288,15.401 15.422 C 16.023 15.829,16.405 17.341,16.144 18.359 C 15.500 20.871,12.013 21.021,10.835 18.586 C 9.772 16.391,12.891 13.197,14.574 14.756 M36.023 14.891 C 36.339 15.198,36.670 15.479,36.757 15.516 C 37.007 15.621,37.667 17.129,37.667 17.594 C 37.667 19.853,34.335 21.214,32.731 19.610 C 31.674 18.553,31.815 15.977,32.967 15.296 C 33.219 15.147,33.566 14.869,33.739 14.679 C 34.258 14.105,35.315 14.203,36.023 14.891 M344.562 27.083 C 344.563 28.092,344.590 28.483,344.623 27.952 C 344.657 27.422,344.656 26.597,344.623 26.119 C 344.589 25.641,344.562 26.075,344.562 27.083 M19.700 28.867 C 19.245 29.322,19.577 31.667,20.096 31.667 C 20.212 31.667,20.411 31.707,20.540 31.756 C 21.017 31.939,21.410 29.827,21.066 28.930 C 20.944 28.615,19.996 28.571,19.700 28.867 M20.916 29.663 C 21.016 30.256,20.906 31.333,20.745 31.333 C 20.018 31.333,19.410 29.645,19.944 29.111 C 20.315 28.741,20.808 29.021,20.916 29.663 M23.361 30.598 C 22.254 31.546,22.084 32.476,22.977 32.709 C 23.339 32.804,25.167 31.161,25.167 30.740 C 25.167 29.901,24.259 29.830,23.361 30.598 M15.591 30.557 C 15.221 30.827,15.638 31.555,16.689 32.472 C 17.634 33.297,18.646 33.015,18.173 32.058 C 17.558 30.815,16.266 30.064,15.591 30.557 M24.667 30.839 C 24.667 31.220,23.293 32.340,23.061 32.148 C 22.713 31.859,22.780 31.652,23.443 30.973 C 24.030 30.372,24.667 30.302,24.667 30.839 M17.122 31.208 C 17.753 31.864,18.012 32.667,17.593 32.667 C 17.084 32.667,15.678 31.044,15.950 30.772 C 16.189 30.533,16.632 30.698,17.122 31.208 M18.914 33.776 C 18.553 34.137,18.867 35.286,19.850 37.200 C 20.024 37.539,20.167 37.921,20.167 38.050 C 20.167 38.178,20.354 38.636,20.583 39.067 C 20.813 39.498,21.000 39.945,21.000 40.059 C 21.000 40.174,21.180 40.639,21.400 41.092 C 21.620 41.546,21.884 42.185,21.987 42.514 C 22.090 42.842,22.322 43.402,22.504 43.757 C 22.685 44.113,22.833 44.504,22.833 44.627 C 22.833 44.750,22.983 45.128,23.166 45.467 C 23.349 45.806,23.608 46.365,23.741 46.708 C 23.998 47.373,24.764 47.598,25.162 47.125 C 25.465 46.766,26.078 45.769,26.290 45.292 C 26.666 44.443,27.146 44.664,29.111 46.583 C 31.336 48.758,31.403 48.770,32.917 47.256 C 34.366 45.807,34.332 45.643,32.126 43.493 C 30.179 41.594,30.056 41.178,31.264 40.585 C 33.480 39.495,33.476 38.615,31.250 37.829 C 29.188 37.100,28.570 36.861,28.083 36.602 C 27.808 36.455,27.471 36.334,27.333 36.333 C 27.196 36.331,26.708 36.146,26.250 35.920 C 25.792 35.695,25.297 35.508,25.150 35.505 C 25.003 35.502,24.547 35.321,24.136 35.103 C 23.724 34.884,23.132 34.652,22.819 34.586 C 22.506 34.521,22.068 34.352,21.846 34.211 C 20.884 33.600,19.322 33.368,18.914 33.776 M21.333 34.320 C 21.563 34.482,22.140 34.708,22.617 34.822 C 23.093 34.936,23.570 35.133,23.675 35.260 C 23.781 35.387,24.141 35.540,24.475 35.599 C 24.810 35.659,25.314 35.846,25.596 36.016 C 25.877 36.185,26.496 36.408,26.971 36.509 C 27.445 36.611,27.833 36.751,27.833 36.820 C 27.833 36.985,28.603 37.333,28.968 37.333 C 29.124 37.333,29.590 37.510,30.001 37.726 C 30.413 37.942,31.009 38.168,31.325 38.228 C 31.910 38.340,32.668 38.911,32.666 39.237 C 32.665 39.426,32.029 39.854,30.917 40.416 C 29.496 41.133,30.110 42.291,33.417 45.132 C 33.883 45.532,33.693 46.047,32.714 47.037 C 31.412 48.352,31.319 48.334,29.366 46.400 C 27.316 44.370,26.533 44.021,26.128 44.958 C 26.019 45.210,25.758 45.629,25.548 45.888 C 25.338 46.147,25.167 46.503,25.167 46.679 C 25.167 47.476,24.060 47.083,23.841 46.208 C 23.731 45.773,23.544 45.304,23.424 45.167 C 23.304 45.029,23.082 44.485,22.931 43.958 C 22.781 43.431,22.593 43.000,22.515 43.000 C 22.437 43.000,22.283 42.644,22.174 42.208 C 22.064 41.773,21.840 41.192,21.676 40.917 C 21.512 40.642,21.330 40.167,21.273 39.861 C 21.216 39.556,21.019 39.115,20.835 38.881 C 20.651 38.647,20.500 38.289,20.500 38.086 C 20.500 37.883,20.313 37.364,20.083 36.933 C 19.854 36.502,19.667 36.053,19.667 35.936 C 19.667 35.819,19.487 35.368,19.267 34.933 L 18.867 34.143 19.225 33.995 C 19.716 33.792,20.828 33.963,21.333 34.320 M14.167 34.449 C 13.651 34.633,13.480 35.035,13.777 35.363 C 14.187 35.816,16.491 35.804,16.904 35.347 C 17.555 34.628,15.528 33.963,14.167 34.449 M16.665 34.915 C 16.831 35.114,16.823 35.181,16.628 35.256 C 16.188 35.425,13.947 35.261,13.879 35.055 C 13.745 34.649,16.336 34.519,16.665 34.915 M21.194 35.521 C 20.710 35.702,20.804 36.680,21.409 37.750 C 21.616 38.117,21.834 38.674,21.895 38.989 C 21.955 39.304,22.107 39.679,22.233 39.822 C 22.358 39.966,22.583 40.511,22.733 41.033 C 22.882 41.556,23.073 42.026,23.158 42.078 C 23.242 42.130,23.426 42.567,23.566 43.049 C 24.021 44.614,25.110 45.275,25.508 44.228 C 26.211 42.380,26.653 42.462,29.090 44.891 C 30.854 46.649,31.496 46.980,32.054 46.422 C 32.560 45.916,32.229 45.337,30.429 43.575 C 28.084 41.279,28.000 41.139,28.702 40.691 C 30.075 39.814,30.500 39.479,30.500 39.273 C 30.500 39.030,28.724 38.083,27.917 37.895 C 27.642 37.830,27.087 37.603,26.684 37.389 C 26.280 37.175,25.815 37.000,25.651 37.000 C 25.486 37.000,24.998 36.813,24.567 36.583 C 24.136 36.354,23.624 36.167,23.429 36.167 C 23.234 36.167,22.915 36.055,22.720 35.919 C 22.126 35.502,21.607 35.367,21.194 35.521 M21.940 35.840 C 22.099 35.999,22.805 36.282,25.333 37.198 C 25.837 37.381,26.325 37.589,26.417 37.660 C 26.508 37.732,26.883 37.880,27.250 37.990 C 27.617 38.099,28.292 38.363,28.750 38.576 C 29.208 38.789,29.715 39.007,29.875 39.060 C 30.307 39.203,30.232 39.404,29.625 39.725 C 27.473 40.863,27.485 41.031,29.912 43.488 C 31.950 45.551,32.315 46.204,31.485 46.300 C 31.132 46.341,30.749 46.051,29.401 44.721 C 28.493 43.826,27.496 42.917,27.185 42.702 L 26.621 42.312 26.059 42.857 C 25.750 43.157,25.407 43.649,25.298 43.951 C 24.989 44.806,24.274 44.197,23.737 42.620 C 23.594 42.202,23.333 41.576,23.156 41.228 C 22.978 40.881,22.833 40.504,22.833 40.390 C 22.833 40.277,22.646 39.832,22.417 39.401 C 22.188 38.970,22.000 38.497,21.999 38.350 C 21.999 38.203,21.861 37.857,21.692 37.580 C 21.272 36.891,21.093 35.890,21.370 35.779 C 21.697 35.647,21.753 35.653,21.940 35.840 M15.964 37.822 C 14.961 38.824,14.879 39.547,15.758 39.633 C 16.625 39.718,18.189 37.998,17.839 37.345 C 17.519 36.746,16.876 36.909,15.964 37.822 M17.616 37.599 C 17.720 37.910,16.058 39.500,15.630 39.500 C 15.302 39.500,15.553 38.674,16.042 38.143 C 16.763 37.358,17.456 37.118,17.616 37.599 " stroke="none" fill="#fbb45c" fill-rule="evenodd"></path><path id="path4" d="M15.872 10.000 C 15.757 10.185,15.736 10.333,15.826 10.333 C 15.915 10.333,16.069 10.183,16.167 10.000 C 16.265 9.817,16.285 9.667,16.213 9.667 C 16.140 9.667,15.987 9.817,15.872 10.000 M32.000 9.878 C 32.000 10.017,32.112 10.174,32.250 10.227 C 32.387 10.280,32.500 10.259,32.500 10.182 C 32.500 10.104,32.387 9.947,32.250 9.833 C 32.046 9.664,32.000 9.673,32.000 9.878 M3.340 16.198 C 3.153 16.399,3.002 16.717,3.005 16.906 C 3.010 17.220,3.025 17.224,3.180 16.958 C 3.273 16.798,3.459 16.667,3.592 16.667 C 3.738 16.667,3.833 16.503,3.833 16.250 C 3.833 15.740,3.773 15.734,3.340 16.198 M44.616 16.208 C 44.804 16.415,44.999 16.696,45.049 16.833 C 45.119 17.026,45.143 17.013,45.154 16.781 C 45.173 16.327,44.858 15.833,44.548 15.833 C 44.315 15.833,44.325 15.889,44.616 16.208 M181.413 17.679 C 181.352 17.869,181.347 18.069,181.401 18.124 C 181.456 18.178,181.500 18.101,181.500 17.953 C 181.500 17.805,181.631 17.607,181.792 17.513 C 182.058 17.358,182.059 17.343,181.803 17.338 C 181.649 17.336,181.473 17.489,181.413 17.679 M200.101 17.597 C 199.936 18.027,199.996 18.274,200.186 17.948 C 200.283 17.781,200.524 17.580,200.723 17.500 C 201.064 17.362,201.060 17.354,200.643 17.344 C 200.387 17.338,200.160 17.444,200.101 17.597 M69.000 28.332 L 69.000 38.500 77.511 38.500 C 86.054 38.500,86.667 38.461,86.667 37.911 C 86.667 37.734,86.867 37.667,87.396 37.667 C 88.576 37.667,89.167 37.497,89.167 37.157 C 89.167 36.972,89.311 36.836,89.542 36.803 C 89.810 36.765,89.932 36.620,89.969 36.292 C 90.011 35.932,90.109 35.833,90.428 35.833 C 90.749 35.833,90.833 35.747,90.833 35.417 C 90.833 35.083,90.917 35.000,91.250 35.000 C 91.583 35.000,91.667 34.917,91.667 34.583 C 91.667 34.255,91.751 34.167,92.064 34.167 C 92.421 34.167,92.473 34.073,92.575 33.256 C 92.757 31.805,92.552 30.833,92.064 30.833 C 91.698 30.833,91.667 30.767,91.667 30.000 C 91.667 29.229,91.637 29.167,91.262 29.167 C 90.968 29.167,90.842 29.063,90.803 28.792 C 90.758 28.472,90.634 28.409,89.958 28.366 C 89.028 28.306,88.760 27.638,89.583 27.432 C 89.851 27.364,90.000 27.210,90.000 27.000 C 90.000 26.789,90.150 26.635,90.421 26.567 L 90.841 26.462 90.796 23.606 C 90.751 20.787,90.745 20.749,90.375 20.697 C 90.104 20.658,90.000 20.532,90.000 20.238 C 90.000 19.917,89.913 19.833,89.583 19.833 C 89.286 19.833,89.167 19.743,89.167 19.518 C 89.167 19.108,88.854 19.000,87.665 19.000 C 86.781 19.000,86.685 18.965,86.637 18.625 L 86.583 18.250 77.792 18.207 L 69.000 18.164 69.000 28.332 M96.040 28.289 L 96.083 38.417 99.833 38.417 L 103.583 38.417 103.627 32.542 L 103.671 26.667 104.076 26.667 C 104.442 26.667,104.487 26.745,104.533 27.458 C 104.576 28.134,104.638 28.258,104.958 28.303 C 105.230 28.342,105.333 28.468,105.333 28.762 C 105.333 29.083,105.420 29.167,105.750 29.167 C 106.083 29.167,106.167 29.250,106.167 29.583 C 106.167 29.914,106.251 30.000,106.574 30.000 C 106.942 30.000,106.987 30.077,107.033 30.792 C 107.076 31.467,107.138 31.591,107.458 31.637 C 107.730 31.675,107.833 31.802,107.833 32.095 C 107.833 32.416,107.920 32.500,108.250 32.500 C 108.583 32.500,108.667 32.583,108.667 32.917 C 108.667 33.250,108.750 33.333,109.083 33.333 C 109.417 33.333,109.500 33.417,109.500 33.750 C 109.500 34.083,109.583 34.167,109.917 34.167 C 110.280 34.167,110.333 34.240,110.333 34.736 C 110.333 35.516,110.480 35.833,110.840 35.833 C 111.028 35.833,111.164 35.976,111.197 36.208 C 111.230 36.446,111.384 36.602,111.615 36.635 C 111.842 36.668,111.999 36.825,112.031 37.052 C 112.060 37.253,112.249 37.489,112.452 37.578 C 112.654 37.667,112.842 37.892,112.868 38.078 C 112.916 38.409,113.021 38.417,117.500 38.417 L 122.083 38.417 122.126 28.292 L 122.169 18.167 118.418 18.167 L 114.667 18.167 114.636 24.125 C 114.619 27.402,114.577 29.690,114.544 29.208 C 114.488 28.408,114.448 28.333,114.075 28.333 C 113.751 28.333,113.667 28.248,113.667 27.917 C 113.667 27.583,113.583 27.500,113.250 27.500 C 112.917 27.500,112.833 27.417,112.833 27.083 C 112.833 26.752,112.749 26.667,112.426 26.667 C 112.058 26.667,112.013 26.590,111.967 25.875 C 111.924 25.199,111.862 25.076,111.542 25.030 C 111.270 24.992,111.167 24.865,111.167 24.572 C 111.167 24.251,111.080 24.167,110.750 24.167 C 110.417 24.167,110.333 24.083,110.333 23.750 C 110.333 23.420,110.249 23.333,109.928 23.333 C 109.609 23.333,109.511 23.235,109.469 22.875 C 109.432 22.547,109.310 22.402,109.042 22.363 C 108.725 22.318,108.667 22.208,108.667 21.652 C 108.667 21.117,108.591 20.958,108.264 20.809 C 108.043 20.709,107.823 20.480,107.776 20.301 C 107.730 20.122,107.540 19.936,107.355 19.887 C 107.170 19.839,106.996 19.638,106.968 19.441 C 106.936 19.221,106.777 19.063,106.552 19.031 C 106.325 18.999,106.168 18.842,106.135 18.615 L 106.083 18.250 101.040 18.206 L 95.997 18.162 96.040 28.289 M130.667 18.576 C 130.667 18.969,130.617 18.987,129.458 19.034 C 128.350 19.079,128.246 19.114,128.197 19.458 C 128.158 19.730,128.032 19.833,127.738 19.833 C 127.417 19.833,127.333 19.920,127.333 20.250 C 127.333 20.583,127.250 20.667,126.917 20.667 C 126.583 20.667,126.500 20.750,126.500 21.083 C 126.500 21.417,126.417 21.500,126.083 21.500 L 125.667 21.500 125.667 24.413 L 125.667 27.327 126.083 27.432 C 126.333 27.494,126.500 27.655,126.500 27.834 C 126.500 28.187,126.821 28.333,127.597 28.333 C 128.094 28.333,128.167 28.387,128.167 28.750 C 128.167 29.138,128.223 29.167,128.988 29.167 C 129.714 29.167,129.816 29.211,129.863 29.542 C 129.912 29.885,130.017 29.921,131.109 29.965 C 132.218 30.011,132.308 30.042,132.404 30.424 C 132.504 30.822,132.548 30.833,134.075 30.833 C 135.575 30.833,135.646 30.850,135.697 31.208 C 135.743 31.535,135.863 31.590,136.625 31.634 L 137.500 31.684 137.500 32.509 L 137.500 33.333 133.250 33.333 C 129.191 33.333,129.000 33.319,129.000 33.018 C 129.000 32.607,128.688 32.500,127.486 32.500 C 126.553 32.500,126.500 32.522,126.500 32.905 C 126.500 33.198,126.396 33.325,126.125 33.363 C 125.798 33.410,125.744 33.529,125.700 34.292 C 125.654 35.083,125.612 35.167,125.260 35.167 C 124.915 35.167,124.859 35.267,124.758 36.074 C 124.601 37.335,124.806 37.667,125.744 37.667 C 126.377 37.667,126.484 37.718,126.530 38.042 L 126.583 38.417 133.667 38.417 L 140.750 38.417 140.803 38.042 C 140.848 37.728,140.960 37.667,141.491 37.667 C 142.526 37.667,143.205 37.474,143.288 37.156 C 143.330 36.994,143.545 36.816,143.766 36.761 C 144.054 36.688,144.167 36.545,144.167 36.247 C 144.167 35.917,144.251 35.833,144.583 35.833 C 144.917 35.833,145.000 35.750,145.000 35.417 C 145.000 35.083,145.083 35.000,145.417 35.000 L 145.833 35.000 145.833 32.083 L 145.833 29.167 145.417 29.167 C 145.083 29.167,145.000 29.083,145.000 28.750 C 145.000 28.417,144.917 28.333,144.583 28.333 C 144.250 28.333,144.167 28.250,144.167 27.917 C 144.167 27.529,144.110 27.500,143.345 27.500 C 142.620 27.500,142.517 27.456,142.470 27.125 C 142.421 26.781,142.317 26.746,141.219 26.701 C 140.128 26.657,140.017 26.620,139.969 26.285 C 139.919 25.936,139.826 25.914,138.208 25.869 C 136.517 25.822,136.500 25.818,136.500 25.411 C 136.500 25.030,136.441 25.000,135.678 25.000 C 134.953 25.000,134.850 24.956,134.803 24.625 C 134.758 24.309,134.618 24.234,133.917 24.151 C 133.458 24.097,133.290 24.041,133.542 24.026 C 133.912 24.005,134.000 23.920,134.000 23.583 L 134.000 23.167 137.833 23.167 L 141.667 23.167 141.667 23.583 C 141.667 23.972,141.722 24.000,142.500 24.000 C 143.278 24.000,143.333 23.972,143.333 23.583 C 143.333 23.250,143.417 23.167,143.750 23.167 C 144.138 23.167,144.167 23.110,144.167 22.345 C 144.167 21.620,144.211 21.517,144.542 21.470 C 145.165 21.381,145.212 19.000,144.591 19.000 C 144.250 19.000,144.167 18.919,144.167 18.583 L 144.167 18.167 137.417 18.167 L 130.667 18.167 130.667 18.576 M209.625 18.330 C 209.831 18.417,210.000 18.606,210.000 18.749 C 210.000 18.891,210.181 19.077,210.403 19.161 C 210.624 19.246,210.844 19.450,210.892 19.616 C 210.946 19.803,210.967 19.759,210.947 19.500 C 210.926 19.210,210.805 19.067,210.552 19.031 C 210.325 18.999,210.168 18.842,210.135 18.615 C 210.100 18.365,209.952 18.237,209.667 18.210 C 209.256 18.171,209.255 18.172,209.625 18.330 M311.125 18.339 C 311.331 18.421,311.500 18.606,311.500 18.749 C 311.500 18.891,311.682 19.077,311.904 19.162 C 312.126 19.246,312.344 19.488,312.389 19.699 C 312.446 19.971,312.462 19.937,312.443 19.583 C 312.423 19.209,312.327 19.071,312.057 19.032 C 311.839 19.001,311.658 18.822,311.596 18.574 C 311.524 18.289,311.382 18.170,311.122 18.177 L 310.750 18.188 311.125 18.339 M191.750 19.114 C 191.933 19.164,192.145 19.290,192.221 19.394 C 192.312 19.519,192.336 19.499,192.291 19.333 C 192.254 19.196,192.042 19.069,191.820 19.053 C 191.502 19.028,191.487 19.041,191.750 19.114 M222.281 19.108 C 222.482 19.152,222.680 19.334,222.720 19.513 C 222.778 19.766,222.789 19.754,222.772 19.461 C 222.756 19.183,222.640 19.076,222.333 19.056 C 221.986 19.033,221.978 19.042,222.281 19.108 M229.875 19.110 C 229.760 19.157,229.675 19.357,229.686 19.556 C 229.699 19.802,229.728 19.831,229.777 19.647 C 229.817 19.499,230.014 19.297,230.216 19.200 C 230.583 19.023,230.286 18.945,229.875 19.110 M246.719 20.019 C 246.885 20.116,247.087 20.357,247.167 20.556 C 247.305 20.898,247.313 20.894,247.323 20.476 C 247.333 20.060,247.073 19.826,246.611 19.838 C 246.504 19.841,246.553 19.923,246.719 20.019 M178.058 20.924 C 178.003 21.065,178.006 21.228,178.063 21.285 C 178.120 21.342,178.167 21.269,178.167 21.123 C 178.167 20.976,178.335 20.824,178.542 20.784 L 178.917 20.712 178.536 20.689 C 178.327 20.677,178.112 20.782,178.058 20.924 M196.778 20.778 C 196.717 20.839,196.668 20.970,196.669 21.069 C 196.671 21.192,196.711 21.189,196.794 21.061 C 196.862 20.957,197.067 20.834,197.250 20.789 C 197.572 20.708,197.572 20.705,197.236 20.686 C 197.045 20.675,196.839 20.717,196.778 20.778 M288.045 21.000 C 288.073 21.311,288.189 21.427,288.500 21.455 C 288.852 21.488,288.867 21.473,288.596 21.360 C 288.419 21.286,288.214 21.081,288.140 20.904 C 288.027 20.633,288.012 20.648,288.045 21.000 M321.732 22.833 C 321.732 24.071,321.758 24.577,321.790 23.958 C 321.822 23.340,321.822 22.327,321.790 21.708 C 321.758 21.090,321.732 21.596,321.732 22.833 M80.833 22.750 C 80.833 23.139,80.889 23.167,81.667 23.167 C 82.444 23.167,82.500 23.194,82.500 23.583 C 82.500 23.921,82.587 24.005,82.958 24.025 L 83.417 24.050 82.958 24.119 C 82.603 24.173,82.500 24.280,82.500 24.594 C 82.500 24.916,82.414 25.000,82.083 25.000 C 81.750 25.000,81.667 25.083,81.667 25.417 L 81.667 25.833 79.083 25.833 L 76.500 25.833 76.500 24.083 L 76.500 22.333 78.667 22.333 L 80.833 22.333 80.833 22.750 M206.836 22.792 C 206.834 23.071,206.929 23.166,207.208 23.164 C 207.485 23.162,207.523 23.124,207.355 23.017 C 207.230 22.938,207.062 22.770,206.983 22.645 C 206.876 22.477,206.838 22.515,206.836 22.792 M252.500 22.861 C 252.500 23.060,252.521 23.191,252.547 23.153 C 252.573 23.115,252.695 22.952,252.818 22.792 C 253.009 22.542,253.002 22.500,252.770 22.500 C 252.604 22.500,252.500 22.639,252.500 22.861 M201.513 23.367 C 201.506 23.523,201.369 23.727,201.208 23.820 C 200.932 23.981,200.932 23.990,201.214 23.995 C 201.539 24.000,201.748 23.634,201.612 23.297 C 201.557 23.160,201.522 23.184,201.513 23.367 M193.478 23.483 C 193.603 23.562,193.771 23.730,193.850 23.855 C 193.957 24.023,193.996 23.985,193.997 23.708 C 193.999 23.429,193.904 23.334,193.625 23.336 C 193.349 23.338,193.310 23.376,193.478 23.483 M224.022 23.527 C 224.172 23.650,224.339 23.863,224.393 24.000 C 224.447 24.137,224.474 24.063,224.454 23.835 C 224.430 23.568,224.298 23.399,224.083 23.362 C 223.782 23.309,223.776 23.325,224.022 23.527 M313.708 23.502 C 313.869 23.602,314.000 23.863,314.000 24.083 C 314.000 24.303,313.869 24.565,313.708 24.665 C 313.442 24.830,313.445 24.841,313.750 24.796 C 314.019 24.755,314.083 24.618,314.083 24.083 C 314.083 23.549,314.019 23.412,313.750 23.371 C 313.445 23.325,313.442 23.337,313.708 23.502 M193.705 24.500 C 193.532 24.778,193.539 24.833,193.749 24.833 C 193.889 24.833,194.000 24.686,194.000 24.500 C 194.000 24.317,193.981 24.167,193.957 24.167 C 193.933 24.167,193.820 24.317,193.705 24.500 M227.862 25.042 C 227.838 25.696,227.779 25.833,227.519 25.833 C 227.209 25.833,226.843 26.898,227.073 27.128 C 227.124 27.180,227.167 27.056,227.167 26.853 C 227.167 26.650,227.359 26.306,227.594 26.088 C 227.952 25.756,228.010 25.578,227.956 24.971 L 227.892 24.250 227.862 25.042 M190.298 24.957 C 190.875 24.990,191.775 24.989,192.298 24.956 C 192.822 24.923,192.350 24.897,191.250 24.897 C 190.150 24.897,189.722 24.924,190.298 24.957 M310.298 24.957 C 310.875 24.990,311.775 24.989,312.298 24.956 C 312.822 24.923,312.350 24.897,311.250 24.897 C 310.150 24.897,309.722 24.924,310.298 24.957 M174.329 25.110 C 174.714 25.301,174.535 27.996,174.125 28.170 C 173.755 28.328,173.756 28.329,174.167 28.290 C 174.650 28.244,174.845 25.164,174.371 25.068 C 174.254 25.044,174.235 25.063,174.329 25.110 M276.662 25.110 C 277.048 25.301,276.868 27.997,276.458 28.161 L 276.083 28.312 276.455 28.323 C 277.036 28.339,277.277 25.182,276.704 25.067 C 276.587 25.044,276.569 25.063,276.662 25.110 M2.542 26.498 C 2.335 26.666,2.167 26.919,2.167 27.060 C 2.167 27.255,2.272 27.220,2.600 26.916 C 3.123 26.431,3.072 26.065,2.542 26.498 M45.167 26.414 C 45.167 26.559,45.298 26.726,45.458 26.785 C 45.619 26.844,45.805 26.973,45.872 27.071 C 45.949 27.184,45.994 27.157,45.992 27.000 C 45.991 26.863,45.804 26.615,45.578 26.451 C 45.219 26.189,45.167 26.184,45.167 26.414 M294.500 26.306 C 294.500 26.412,294.331 26.509,294.125 26.519 C 293.816 26.535,293.805 26.553,294.059 26.618 C 294.392 26.704,294.802 26.413,294.614 26.225 C 294.551 26.162,294.500 26.199,294.500 26.306 M249.238 26.807 C 249.414 26.881,249.619 27.086,249.693 27.262 C 249.807 27.534,249.822 27.519,249.789 27.167 C 249.760 26.856,249.644 26.740,249.333 26.711 C 248.981 26.678,248.966 26.693,249.238 26.807 M250.663 28.534 C 250.618 28.965,250.644 29.256,250.719 29.181 C 250.794 29.106,250.831 28.753,250.800 28.397 L 250.743 27.750 250.663 28.534 M329.167 27.972 C 329.167 28.079,328.998 28.175,328.792 28.186 C 328.483 28.202,328.471 28.219,328.726 28.285 C 329.058 28.371,329.469 28.080,329.281 27.892 C 329.218 27.829,329.167 27.865,329.167 27.972 M244.844 28.524 C 244.834 28.940,245.094 29.174,245.555 29.162 C 245.662 29.159,245.614 29.077,245.448 28.981 C 245.281 28.884,245.080 28.643,245.000 28.444 C 244.862 28.102,244.854 28.106,244.844 28.524 M255.686 28.366 C 255.675 28.521,255.500 28.765,255.296 28.907 C 255.018 29.102,254.992 29.167,255.193 29.167 C 255.559 29.167,255.877 28.745,255.783 28.383 C 255.715 28.121,255.703 28.119,255.686 28.366 M226.152 28.908 C 226.232 29.386,226.241 29.392,226.302 29.000 C 226.338 28.771,226.452 28.530,226.556 28.466 C 226.664 28.399,226.599 28.359,226.407 28.374 C 226.124 28.395,226.082 28.485,226.152 28.908 M321.734 30.833 C 321.734 32.254,321.759 32.835,321.791 32.125 C 321.822 31.415,321.822 30.252,321.791 29.542 C 321.759 28.831,321.734 29.412,321.734 30.833 M231.186 29.361 C 231.175 29.606,231.073 29.843,230.958 29.890 C 230.795 29.955,230.796 29.977,230.964 29.987 C 231.228 30.003,231.387 29.620,231.283 29.218 C 231.231 29.015,231.199 29.061,231.186 29.361 M193.333 29.274 C 193.471 29.328,193.684 29.494,193.807 29.644 C 194.009 29.891,194.024 29.885,193.972 29.583 C 193.934 29.368,193.766 29.237,193.498 29.213 C 193.270 29.192,193.196 29.220,193.333 29.274 M220.655 29.458 C 221.005 29.742,221.013 29.840,220.966 33.193 C 220.939 35.086,220.973 36.600,221.042 36.558 C 221.110 36.515,221.167 34.995,221.167 33.180 L 221.167 29.880 221.600 29.962 L 222.034 30.045 221.642 29.646 C 221.426 29.426,221.203 29.311,221.146 29.391 C 221.089 29.470,220.990 29.453,220.928 29.351 C 220.865 29.250,220.697 29.167,220.555 29.167 C 220.360 29.167,220.384 29.238,220.655 29.458 M313.500 29.382 C 314.057 29.662,314.123 30.228,313.639 30.567 L 313.259 30.833 313.626 30.833 C 314.048 30.833,314.267 30.254,314.098 29.583 C 314.018 29.265,313.886 29.167,313.538 29.169 L 313.083 29.172 313.500 29.382 M80.000 30.417 C 80.000 30.824,80.029 30.833,81.238 30.833 C 82.396 30.833,82.480 30.858,82.530 31.208 C 82.564 31.446,82.717 31.602,82.948 31.635 C 83.335 31.690,83.465 32.078,83.359 32.867 C 83.304 33.273,83.223 33.321,82.524 33.367 C 81.867 33.409,81.742 33.473,81.697 33.792 C 81.644 34.162,81.612 34.167,79.072 34.167 L 76.500 34.167 76.500 32.083 L 76.500 30.000 78.250 30.000 L 80.000 30.000 80.000 30.417 M201.214 30.375 C 201.588 30.755,201.776 30.692,201.604 30.245 C 201.553 30.110,201.361 30.000,201.178 30.000 C 200.856 30.000,200.857 30.012,201.214 30.375 M193.833 30.311 C 193.833 30.421,193.665 30.579,193.458 30.661 L 193.083 30.812 193.464 30.823 C 193.832 30.833,194.149 30.426,193.937 30.215 C 193.880 30.158,193.833 30.201,193.833 30.311 M177.224 31.000 C 177.246 31.488,177.318 31.592,177.667 31.636 L 178.083 31.690 177.720 31.427 C 177.520 31.282,177.321 30.996,177.277 30.790 C 177.234 30.585,177.210 30.679,177.224 31.000 M207.042 30.944 C 206.927 30.990,206.842 31.190,206.853 31.389 C 206.866 31.636,206.895 31.665,206.944 31.480 C 206.984 31.332,207.181 31.131,207.383 31.033 C 207.750 30.856,207.452 30.778,207.042 30.944 M293.250 30.947 C 293.433 30.997,293.645 31.124,293.721 31.228 C 293.812 31.353,293.836 31.332,293.791 31.167 C 293.754 31.029,293.542 30.903,293.320 30.886 C 293.002 30.862,292.987 30.875,293.250 30.947 M297.362 31.250 C 297.399 31.465,297.568 31.597,297.835 31.621 C 298.063 31.641,298.137 31.614,298.000 31.560 C 297.862 31.506,297.650 31.339,297.527 31.189 C 297.325 30.943,297.309 30.948,297.362 31.250 M183.250 31.866 C 183.433 31.970,183.638 32.136,183.706 32.236 C 183.782 32.348,183.829 32.313,183.831 32.143 C 183.833 31.876,183.505 31.661,183.111 31.672 C 183.004 31.675,183.067 31.762,183.250 31.866 M303.548 32.042 C 303.820 32.318,303.932 32.356,303.975 32.187 C 304.036 31.945,303.724 31.674,303.381 31.669 C 303.270 31.668,303.345 31.835,303.548 32.042 M229.863 32.305 C 229.547 32.548,229.488 32.723,229.543 33.260 L 229.611 33.917 229.639 33.208 C 229.662 32.620,229.723 32.500,230.000 32.500 C 230.185 32.500,230.333 32.389,230.333 32.250 C 230.333 31.942,230.336 31.941,229.863 32.305 M246.513 32.528 C 246.489 33.034,246.698 33.334,247.059 33.314 C 247.325 33.300,247.345 33.276,247.135 33.220 C 246.981 33.180,246.781 32.945,246.690 32.698 C 246.595 32.436,246.521 32.366,246.513 32.528 M254.019 32.694 C 254.009 32.939,253.906 33.177,253.792 33.223 C 253.628 33.289,253.630 33.310,253.797 33.320 C 254.061 33.336,254.221 32.953,254.117 32.551 C 254.064 32.348,254.032 32.395,254.019 32.694 M184.439 32.612 C 184.543 32.688,184.669 32.900,184.720 33.083 C 184.792 33.346,184.805 33.331,184.781 33.013 C 184.764 32.791,184.637 32.579,184.500 32.542 C 184.335 32.497,184.314 32.521,184.439 32.612 M294.083 32.614 C 294.267 32.664,294.479 32.790,294.554 32.894 C 294.645 33.019,294.669 32.999,294.625 32.833 C 294.588 32.696,294.376 32.569,294.154 32.553 C 293.835 32.528,293.820 32.541,294.083 32.614 M306.562 32.745 C 306.511 32.879,306.507 33.085,306.554 33.203 C 306.602 33.320,306.646 33.253,306.654 33.054 C 306.661 32.854,306.798 32.657,306.958 32.615 C 307.232 32.543,307.231 32.537,306.953 32.519 C 306.790 32.509,306.614 32.610,306.562 32.745 M288.878 33.667 C 288.907 33.977,289.023 34.093,289.333 34.122 C 289.686 34.155,289.700 34.140,289.429 34.026 C 289.253 33.952,289.048 33.747,288.974 33.571 C 288.860 33.300,288.845 33.314,288.878 33.667 M57.780 33.852 C 57.822 34.073,58.039 34.339,58.262 34.444 C 58.788 34.693,58.772 34.595,58.185 33.967 C 57.724 33.473,57.707 33.468,57.780 33.852 M178.846 34.195 C 178.823 34.701,179.031 35.000,179.393 34.981 C 179.658 34.966,179.678 34.942,179.469 34.887 C 179.314 34.846,179.114 34.611,179.024 34.365 C 178.928 34.103,178.854 34.032,178.846 34.195 M299.003 34.625 C 299.001 34.904,299.096 34.999,299.375 34.997 C 299.651 34.996,299.690 34.957,299.522 34.850 C 299.397 34.771,299.229 34.603,299.150 34.478 C 299.043 34.310,299.004 34.349,299.003 34.625 M209.959 35.417 C 209.915 35.646,209.944 35.833,210.023 35.833 C 210.102 35.833,210.167 35.646,210.167 35.417 C 210.167 35.188,210.138 35.000,210.103 35.000 C 210.068 35.000,210.003 35.188,209.959 35.417 M289.713 35.332 C 289.737 35.599,289.868 35.767,290.083 35.805 C 290.385 35.858,290.391 35.842,290.144 35.640 C 289.994 35.517,289.828 35.304,289.774 35.167 C 289.720 35.029,289.692 35.103,289.713 35.332 M253.000 35.481 C 253.000 35.562,252.850 35.667,252.667 35.715 C 252.444 35.773,252.333 35.942,252.333 36.224 C 252.333 36.573,252.241 36.658,251.792 36.720 L 251.250 36.794 251.833 36.772 C 252.339 36.753,252.424 36.689,252.469 36.292 C 252.507 35.968,252.617 35.833,252.844 35.833 C 253.022 35.833,253.167 35.721,253.167 35.583 C 253.167 35.446,253.129 35.333,253.083 35.333 C 253.037 35.333,253.000 35.400,253.000 35.481 M223.720 36.082 C 223.741 36.437,223.846 36.597,224.083 36.639 C 224.387 36.692,224.392 36.677,224.139 36.473 C 223.986 36.350,223.823 36.100,223.776 35.917 C 223.726 35.722,223.703 35.791,223.720 36.082 M216.056 36.333 C 216.076 36.640,216.183 36.756,216.461 36.772 C 216.754 36.789,216.766 36.778,216.513 36.720 C 216.334 36.680,216.152 36.482,216.108 36.281 C 216.042 35.978,216.033 35.986,216.056 36.333 M174.833 36.667 L 174.250 36.789 174.782 36.811 C 175.074 36.823,175.360 36.758,175.417 36.667 C 175.473 36.575,175.496 36.510,175.468 36.522 C 175.440 36.534,175.154 36.599,174.833 36.667 M200.985 36.719 C 201.060 36.794,201.450 36.830,201.852 36.799 L 202.583 36.744 201.716 36.664 C 201.240 36.619,200.911 36.644,200.985 36.719 M244.167 36.667 L 243.583 36.789 244.115 36.811 C 244.408 36.823,244.693 36.758,244.750 36.667 C 244.807 36.575,244.830 36.510,244.802 36.522 C 244.773 36.534,244.487 36.599,244.167 36.667 M277.167 36.667 L 276.583 36.789 277.115 36.811 C 277.408 36.823,277.693 36.758,277.750 36.667 C 277.807 36.575,277.830 36.510,277.802 36.522 C 277.773 36.534,277.487 36.599,277.167 36.667 M182.377 36.786 C 182.631 36.825,183.006 36.824,183.211 36.784 C 183.416 36.744,183.208 36.713,182.750 36.714 C 182.292 36.716,182.124 36.748,182.377 36.786 M188.128 36.787 C 188.428 36.825,188.878 36.824,189.128 36.786 C 189.378 36.748,189.133 36.717,188.583 36.718 C 188.033 36.719,187.828 36.750,188.128 36.787 M206.708 36.786 C 206.960 36.824,207.373 36.824,207.625 36.786 C 207.877 36.748,207.671 36.717,207.167 36.717 C 206.662 36.717,206.456 36.748,206.708 36.786 M240.375 36.782 C 240.535 36.823,240.798 36.823,240.958 36.782 C 241.119 36.740,240.987 36.705,240.667 36.705 C 240.346 36.705,240.215 36.740,240.375 36.782 M248.708 36.782 C 248.869 36.823,249.131 36.823,249.292 36.782 C 249.452 36.740,249.321 36.705,249.000 36.705 C 248.679 36.705,248.548 36.740,248.708 36.782 M256.208 36.782 C 256.369 36.823,256.631 36.823,256.792 36.782 C 256.952 36.740,256.821 36.705,256.500 36.705 C 256.179 36.705,256.048 36.740,256.208 36.782 M259.875 36.782 C 260.035 36.823,260.298 36.823,260.458 36.782 C 260.619 36.740,260.487 36.705,260.167 36.705 C 259.846 36.705,259.715 36.740,259.875 36.782 M290.875 36.782 C 291.035 36.823,291.298 36.823,291.458 36.782 C 291.619 36.740,291.487 36.705,291.167 36.705 C 290.846 36.705,290.715 36.740,290.875 36.782 M302.375 36.786 C 302.627 36.824,303.040 36.824,303.292 36.786 C 303.544 36.748,303.337 36.717,302.833 36.717 C 302.329 36.717,302.123 36.748,302.375 36.786 M308.208 36.786 C 308.460 36.824,308.873 36.824,309.125 36.786 C 309.377 36.748,309.171 36.717,308.667 36.717 C 308.162 36.717,307.956 36.748,308.208 36.786 M46.903 41.167 C 46.903 42.862,46.927 43.556,46.958 42.708 C 46.988 41.860,46.988 40.473,46.958 39.625 C 46.927 38.777,46.903 39.471,46.903 41.167 M112.278 45.444 C 112.217 45.506,112.168 45.749,112.170 45.986 L 112.174 46.417 112.494 46.001 L 112.813 45.585 113.290 46.042 C 113.917 46.642,114.390 46.343,113.803 45.718 C 113.456 45.348,112.539 45.184,112.278 45.444 M340.839 45.989 C 340.559 46.512,340.634 47.269,340.989 47.521 C 341.223 47.687,341.368 48.115,341.518 49.083 C 341.799 50.896,343.080 51.803,343.636 50.583 C 343.748 50.339,343.965 50.167,344.163 50.167 C 344.402 50.167,344.499 50.058,344.497 49.792 C 344.496 49.558,344.447 49.491,344.369 49.615 C 344.216 49.856,343.041 50.667,342.845 50.667 C 342.540 50.667,342.167 49.805,342.167 49.101 C 342.167 48.692,342.066 48.256,341.943 48.133 C 341.330 47.520,341.163 46.682,341.585 46.332 C 341.808 46.147,341.803 46.097,341.544 45.900 C 341.146 45.599,341.041 45.612,340.839 45.989 M164.611 46.111 C 164.550 46.172,164.500 46.397,164.500 46.611 L 164.500 47.000 161.589 47.000 L 158.678 47.000 158.569 47.824 C 158.480 48.496,158.394 48.658,158.105 48.699 C 157.557 48.777,157.569 50.837,158.118 51.078 C 158.321 51.167,158.508 51.392,158.535 51.578 C 158.564 51.783,158.732 51.938,158.958 51.970 C 159.165 51.999,159.333 52.087,159.333 52.165 C 159.333 52.242,159.379 52.425,159.434 52.570 C 159.511 52.768,159.429 52.833,159.104 52.833 C 158.783 52.833,158.646 52.940,158.568 53.250 C 158.503 53.509,158.346 53.667,158.152 53.667 C 157.768 53.667,157.628 54.158,157.698 55.261 L 157.750 56.083 160.988 56.129 C 163.467 56.163,164.257 56.124,164.360 55.962 C 164.466 55.795,164.495 55.795,164.497 55.958 C 164.499 56.118,165.280 56.167,167.837 56.167 L 171.174 56.167 171.129 52.875 L 171.083 49.583 169.458 49.536 L 167.833 49.488 167.833 47.845 C 167.833 46.501,167.785 46.184,167.570 46.101 C 167.212 45.964,164.750 45.972,164.611 46.111 M233.208 46.110 C 233.094 46.157,233.000 46.394,233.000 46.639 L 233.001 47.083 231.334 47.031 L 229.667 46.978 229.647 49.364 C 229.637 50.676,229.594 51.619,229.552 51.458 C 229.506 51.282,229.316 51.167,229.071 51.167 C 228.697 51.167,228.667 51.104,228.667 50.333 L 228.667 49.500 225.759 49.500 L 222.852 49.500 222.801 48.708 C 222.758 48.040,222.693 47.909,222.385 47.865 C 222.158 47.832,222.001 47.675,221.969 47.448 C 221.917 47.085,221.897 47.083,218.167 47.083 L 214.417 47.083 214.417 51.583 L 214.417 56.083 217.792 56.128 L 221.167 56.174 221.167 55.753 C 221.167 55.416,221.249 55.333,221.583 55.333 C 221.917 55.333,222.000 55.250,222.000 54.917 C 222.000 54.583,222.083 54.500,222.417 54.500 C 222.806 54.500,222.833 54.556,222.833 55.333 L 222.833 56.167 226.153 56.167 C 228.652 56.167,229.493 56.115,229.556 55.958 C 229.624 55.792,229.643 55.792,229.654 55.958 C 229.664 56.118,230.451 56.167,233.000 56.167 L 236.333 56.167 236.333 54.440 L 236.333 52.713 236.729 52.789 C 237.440 52.924,237.481 56.098,236.774 56.199 C 236.452 56.245,236.412 56.368,236.368 57.458 L 236.319 58.667 237.993 58.667 C 239.655 58.667,239.667 58.664,239.667 58.261 C 239.667 57.942,239.765 57.844,240.125 57.803 C 240.453 57.765,240.598 57.644,240.637 57.375 C 240.670 57.143,240.805 57.000,240.994 57.000 C 241.353 57.000,241.500 56.682,241.500 55.903 C 241.500 55.456,241.568 55.333,241.814 55.333 C 242.191 55.333,242.328 54.902,242.331 53.708 C 242.333 52.962,242.380 52.833,242.649 52.833 C 243.084 52.833,243.167 52.524,243.167 50.903 L 243.167 49.500 241.507 49.500 L 239.847 49.500 239.791 50.792 L 239.734 52.083 239.700 50.792 L 239.667 49.500 238.000 49.500 L 236.333 49.500 236.333 47.750 L 236.333 46.000 234.875 46.013 C 234.073 46.020,233.323 46.064,233.208 46.110 M267.875 46.110 C 267.728 46.170,267.667 46.680,267.667 47.841 L 267.667 49.488 266.042 49.536 L 264.417 49.583 264.366 50.375 C 264.288 51.589,263.585 51.558,263.417 50.333 L 263.302 49.500 257.910 49.500 L 252.518 49.500 252.467 48.708 C 252.421 47.983,252.378 47.912,251.958 47.864 C 251.598 47.823,251.500 47.724,251.500 47.406 L 251.500 47.000 248.583 47.000 L 245.667 47.000 245.667 51.583 L 245.667 56.167 247.333 56.167 L 249.000 56.167 249.000 54.917 L 249.000 53.667 249.833 53.667 C 250.611 53.667,250.667 53.639,250.667 53.250 C 250.667 52.862,250.723 52.833,251.488 52.833 C 252.130 52.833,252.326 52.770,252.385 52.542 C 252.427 52.381,252.470 53.131,252.481 54.208 L 252.500 56.167 254.167 56.167 L 255.833 56.167 255.833 54.083 L 255.833 52.000 256.250 52.000 L 256.667 52.000 256.667 53.667 L 256.667 55.333 257.083 55.333 C 257.417 55.333,257.500 55.417,257.500 55.750 L 257.500 56.167 260.000 56.167 L 262.500 56.167 262.500 55.761 C 262.500 55.442,262.598 55.344,262.958 55.303 C 263.287 55.265,263.432 55.144,263.470 54.875 C 263.586 54.060,264.308 54.396,264.366 55.292 L 264.417 56.083 267.708 56.129 L 271.000 56.174 271.000 55.337 C 271.000 54.555,271.028 54.500,271.417 54.500 C 271.805 54.500,271.833 54.556,271.833 55.332 L 271.833 56.163 280.341 56.160 L 288.848 56.158 288.799 54.954 L 288.750 53.750 287.958 53.699 L 287.167 53.648 287.167 52.833 L 287.167 52.018 287.958 51.967 L 288.750 51.917 288.799 50.708 L 288.848 49.500 288.007 49.500 L 287.167 49.500 287.167 48.667 L 287.167 47.833 285.518 47.833 C 283.702 47.833,283.667 47.854,283.667 48.930 L 283.667 49.500 281.583 49.500 L 279.500 49.500 279.500 49.917 C 279.500 50.250,279.417 50.333,279.083 50.333 C 278.750 50.333,278.667 50.250,278.667 49.917 L 278.667 49.500 277.000 49.500 L 275.333 49.500 275.333 51.167 L 275.333 52.833 274.833 52.833 L 274.333 52.833 274.333 51.167 L 274.333 49.500 272.667 49.500 L 271.000 49.500 271.000 47.750 L 271.000 46.000 269.542 46.013 C 268.740 46.020,267.990 46.064,267.875 46.110 M342.458 46.118 C 342.665 46.157,343.002 46.157,343.208 46.118 C 343.415 46.078,343.246 46.045,342.833 46.045 C 342.421 46.045,342.252 46.078,342.458 46.118 M343.689 46.630 C 343.676 46.855,343.786 47.054,343.958 47.118 C 344.119 47.177,344.305 47.306,344.372 47.405 C 344.446 47.512,344.496 47.467,344.497 47.292 C 344.499 47.114,344.375 47.000,344.178 47.000 C 343.977 47.000,343.829 46.859,343.784 46.625 L 343.712 46.250 343.689 46.630 M0.503 47.375 C 0.504 47.651,0.543 47.690,0.650 47.522 C 0.729 47.397,0.897 47.229,1.022 47.150 C 1.190 47.043,1.151 47.004,0.875 47.003 C 0.596 47.001,0.501 47.096,0.503 47.375 M105.083 50.552 L 105.083 54.073 104.667 54.284 C 104.264 54.488,104.263 54.495,104.619 54.498 C 104.822 54.499,105.066 54.355,105.161 54.178 C 105.359 53.807,105.403 47.230,105.208 47.109 C 105.140 47.066,105.083 48.616,105.083 50.552 M186.611 47.111 C 186.273 47.449,186.504 48.500,186.917 48.500 C 187.304 48.500,187.333 48.557,187.333 49.315 C 187.333 50.046,187.377 50.141,187.750 50.235 C 188.054 50.312,188.167 50.451,188.167 50.753 C 188.167 51.083,188.251 51.167,188.583 51.167 L 189.000 51.167 189.000 53.667 L 189.000 56.167 190.667 56.167 L 192.333 56.167 192.356 54.875 C 192.369 54.165,192.412 53.761,192.453 53.978 C 192.495 54.194,192.668 54.408,192.838 54.453 C 193.009 54.498,193.171 54.695,193.199 54.892 C 193.235 55.143,193.388 55.266,193.708 55.303 C 194.068 55.344,194.167 55.442,194.167 55.761 L 194.167 56.167 196.667 56.167 L 199.167 56.167 199.167 55.750 C 199.167 55.417,199.250 55.333,199.583 55.333 C 199.917 55.333,200.000 55.250,200.000 54.917 C 200.000 54.583,200.083 54.500,200.417 54.500 C 200.806 54.500,200.833 54.556,200.833 55.333 L 200.833 56.166 205.917 56.162 L 211.000 56.157 211.000 54.078 L 211.000 52.000 211.833 52.000 L 212.667 52.000 212.667 50.751 L 212.667 49.503 208.417 49.506 L 204.167 49.510 204.167 51.171 C 204.167 52.833,204.167 52.833,203.750 52.833 L 203.333 52.833 203.333 51.167 L 203.333 49.500 201.667 49.500 L 200.000 49.500 200.000 49.917 C 200.000 50.250,199.917 50.333,199.583 50.333 C 199.250 50.333,199.167 50.250,199.167 49.917 L 199.167 49.500 197.038 49.500 L 194.910 49.500 194.973 48.250 L 195.036 47.000 193.268 47.000 L 191.500 47.000 191.500 47.833 C 191.500 48.611,191.472 48.667,191.083 48.667 C 190.694 48.667,190.667 48.611,190.667 47.833 L 190.667 47.000 188.694 47.000 C 187.610 47.000,186.672 47.050,186.611 47.111 M113.211 47.823 L 112.839 48.250 112.507 47.833 C 112.195 47.443,112.174 47.438,112.170 47.758 C 112.163 48.438,113.061 48.779,113.492 48.259 C 113.902 47.766,113.629 47.343,113.211 47.823 M47.726 49.250 C 47.725 50.075,47.754 50.434,47.788 50.047 C 47.823 49.660,47.824 48.985,47.789 48.547 C 47.755 48.109,47.726 48.425,47.726 49.250 M344.548 48.583 C 344.549 49.042,344.581 49.209,344.620 48.956 C 344.658 48.703,344.657 48.328,344.617 48.123 C 344.578 47.918,344.546 48.125,344.548 48.583 M173.000 49.917 C 173.000 50.250,172.917 50.333,172.583 50.333 C 172.253 50.333,172.167 50.417,172.167 50.738 C 172.167 51.032,172.063 51.158,171.792 51.197 C 171.433 51.248,171.417 51.318,171.417 52.833 C 171.417 54.348,171.433 54.419,171.792 54.470 C 172.063 54.508,172.167 54.635,172.167 54.928 C 172.167 55.249,172.253 55.333,172.583 55.333 C 172.917 55.333,173.000 55.417,173.000 55.750 L 173.000 56.167 175.500 56.167 L 178.000 56.167 178.000 57.417 L 178.000 58.667 179.667 58.667 L 181.333 58.667 181.333 57.417 L 181.333 56.167 183.083 56.167 L 184.833 56.167 184.833 55.750 C 184.833 55.417,184.917 55.333,185.250 55.333 L 185.667 55.333 185.667 52.833 L 185.667 50.333 185.250 50.333 C 184.917 50.333,184.833 50.250,184.833 49.917 L 184.833 49.500 178.917 49.500 L 173.000 49.500 173.000 49.917 M218.667 49.815 C 218.667 50.013,218.823 50.170,219.083 50.235 C 219.481 50.335,219.500 50.396,219.500 51.587 C 219.500 52.805,219.491 52.833,219.083 52.833 C 218.750 52.833,218.667 52.917,218.667 53.250 C 218.667 53.583,218.583 53.667,218.250 53.667 L 217.833 53.667 217.833 51.583 L 217.833 49.500 218.250 49.500 C 218.548 49.500,218.667 49.590,218.667 49.815 M164.500 50.340 C 164.500 50.622,164.461 50.643,164.268 50.465 C 164.101 50.309,164.089 50.216,164.227 50.128 C 164.494 49.956,164.500 49.961,164.500 50.340 M283.667 52.833 L 283.667 53.667 282.833 53.667 L 282.000 53.667 282.000 52.833 L 282.000 52.000 282.833 52.000 L 283.667 52.000 283.667 52.833 M161.167 53.250 C 161.167 53.602,161.089 53.667,160.667 53.667 C 160.244 53.667,160.167 53.602,160.167 53.250 C 160.167 52.898,160.244 52.833,160.667 52.833 C 161.089 52.833,161.167 52.898,161.167 53.250 M349.686 53.528 C 349.655 54.228,349.830 54.500,350.309 54.498 L 350.750 54.495 350.334 54.285 C 350.089 54.160,349.875 53.872,349.812 53.579 C 349.707 53.089,349.706 53.088,349.686 53.528 " stroke="none" fill="#e40404" fill-rule="evenodd"></path></g></svg>